<svg xmlns="http://www.w3.org/2000/svg" viewBox="0 0 126.08 144.91"><defs><style>.cls-1{fill:#1e1e1c;}.cls-2{fill:#fdfdfd;}</style></defs><title>Asset 8</title><g id="Layer_2" data-name="Layer 2"><g id="Layer_1-2" data-name="Layer 1"><path class="cls-1" d="M41.31,33.86a25.85,25.85,0,0,1,12.93,3.61c5.49,3.22,11.12,2.73,16.83.79,3.51-1.19,6.8-3,10.36-4,8.55-2.49,16.65-1.08,24.39,3,1,.52,1.9,1.58,2.85,1.58s1.87-1.06,2.84-1.6a14.75,14.75,0,0,1,6-2.21,6.73,6.73,0,0,1,6.34,2.73,10.66,10.66,0,0,1,2.23,7.4c-.13,1.85-1.39,2.79-2.9,3.53a37.58,37.58,0,0,0-7.81,5.21,30.48,30.48,0,0,0-10,17.5,80,80,0,0,0-1.34,9c-.29,3.08,1,5.79,2.19,8.45,3.34,7.23,9,12.27,15.75,16.19,2,1.16,2,1.15,1.44,3.46a40.45,40.45,0,0,1-4.54,10.85c-4.49,7.85-10,14.88-17.34,20.26a25.94,25.94,0,0,1-12.11,5.14c-3.87.48-7.34-.64-10.73-2.26a37.73,37.73,0,0,0-9.22-3.36,26,26,0,0,0-15.91,1.93,48.87,48.87,0,0,1-10.3,3.43c-6.54,1.33-12.08-.52-17-4.77-6-5.15-10.34-11.56-14-18.46A104.89,104.89,0,0,1,.58,85.36C-.71,75.51,0,65.87,4.17,56.7,8.6,47,15.52,39.72,25.7,35.92,30,34.3,34.57,34,41.31,33.86Zm13.38,31.9V66c-5.21,0-10.42,0-15.63,0-3,0-5.89-.24-8.84-.15a7.35,7.35,0,0,0-7.43,5.51,15.13,15.13,0,0,0-.54,6.81,68.91,68.91,0,0,0,3.34,14c2.31,6.67,5.67,12.7,11,17.52,7,6.37,15.54,8.7,24.66,9.12A41.33,41.33,0,0,0,80,115.13c12.12-5.41,19.8-14.18,20.61-28,.28-4.73.77-9.45,1.52-14.15,2-12.33,8.61-21.19,19.71-26.77a2.18,2.18,0,0,0,1.39-2.43c-.41-4.92-3.86-7.12-8.24-5a39.81,39.81,0,0,0-21.8,26.64c-1.5,5.68-1.85,11.55-2.74,17.33C89.8,86.85,89,90.9,86.94,94.57c-3.82,6.88-10.08,10.06-17.5,11.46-.85.16-.63-.42-.63-.82,0-8.85,0-17.71,0-26.56,0-.82.29-1.06,1-1.12a35.22,35.22,0,0,1,4.36-.12c1.91.09,3.81.4,5.74.3a4.33,4.33,0,0,0,3.58-1.48c1.59-2.11,2.34-4.49,1.18-7a6,6,0,0,0-5.94-3.51C70.71,65.8,62.7,65.76,54.69,65.76Zm2,64.58A10.66,10.66,0,1,0,46,141,10.64,10.64,0,0,0,56.66,130.34ZM93,130.26A10.7,10.7,0,1,0,82.37,141,10.7,10.7,0,0,0,93,130.26Z"/><path class="cls-1" d="M89.22,4.48c-.09,12.18-7.89,24.11-18.85,28.73A25,25,0,0,1,60.3,35.15c-.73,0-1-.2-1-.94a28.85,28.85,0,0,1,1.89-12C65.8,9.63,74.81,2.32,88,0c.6-.11.92,0,1,.67C89,2,89.12,3.23,89.22,4.48Z"/><path class="cls-2" d="M56.66,130.34A10.66,10.66,0,1,1,46.1,119.61,10.61,10.61,0,0,1,56.66,130.34Z"/><path class="cls-1" d="M56.81,92.29c0,4.48,0,9,0,13.44,0,.91-.16,1-1.07.83-6.89-1.63-12.62-5-16.58-11a33.23,33.23,0,0,1-4.86-13.94c-.13-1-.14-1.91-.33-2.85s.14-1,.87-1c5.43,0,10.87-.09,16.3-.13,1.57,0,3.14,0,4.71,0,.78,0,1,.23,1,1,0,4.55,0,9.11,0,13.66Z"/></g></g></svg>