<svg xmlns="http://www.w3.org/2000/svg" viewBox="0 0 237.56 146.64"><defs><style>.cls-1{fill:#000200;fill-rule:evenodd;}</style></defs><title>Asset 6</title><g id="Layer_2" data-name="Layer 2"><g id="Layer_1-2" data-name="Layer 1"><path class="cls-1" d="M53.7,21q0-7.39-7.14-7.4-7.44,0-7.43,7.4V75.47h-17q-7.44,0-7.43-7.48v-7.1q0-7.38-7.3-7.39C2.59,53.5.16,55.94.16,60.79v6.9C.16,82.6,7.44,90,22,90l24.39,0c4.86,0,7.29-2.4,7.29-7.19V75.47H76.14q22.33,0,22.35-21.86v-5q0-7.29-7.19-7.3c-4.89,0-7.33,2.41-7.33,7.19l0,5c0,5-2.49,7.43-7.44,7.43H53.7Zm183.86,96q0,3.75-3.67,3.75l-12.5,0c-2.55,0-3.81,1.27-3.81,3.81v1.25l11.26,0q3.74,0,3.71,3.63c0,2.54-1.26,3.84-3.79,3.87l-11.18,0v5l16.14,0c2.52.05,3.8,1.28,3.82,3.71s-1.32,3.73-3.92,3.71H213.84q-3.74,0-3.74-3.74V124.76q0-11.48,11.21-11.47h12.51C236.31,113.29,237.56,114.53,237.56,117ZM56.05,124.38v11.27q0,11,10.92,11h5q11,0,11-11.24v-11q0-11-11-11H67.07Q56,113.33,56.05,124.38Zm15.88-3.67c2.47,0,3.72,1.19,3.72,3.55v11.29c0,2.51-1.25,3.76-3.72,3.76H67q-3.61,0-3.61-3.76V124.36q0-3.64,3.61-3.65Zm-44.58,21.2V117c0-2.46-1.25-3.7-3.74-3.7l-12.4,0Q0,113.31,0,124.77V142q0,3.73,3.73,3.74c2.49,0,3.74-1.27,3.74-3.79l0-6.23,12.38,0v6.2c0,2.52,1.26,3.79,3.81,3.79S27.35,144.43,27.35,141.91ZM7.47,128.18v-3.56c0-2.55,1.27-3.84,3.81-3.84h8.6v7.4ZM48,145.68H37.92a4.14,4.14,0,0,1-2.6-.74h0v0l0,0,0,0h0l0,0-.06-.06h0l0,0,0,0a3.87,3.87,0,0,1-.91-2.79V117.15q0-3.81,3.69-3.81c2.51,0,3.78,1.27,3.78,3.81v20a7.27,7.27,0,0,1,.09,1,5.94,5.94,0,0,1,1,.09H48q3.81,0,3.81,3.78T48,145.68Zm154.53,0H192.45a4.14,4.14,0,0,1-2.6-.74h0v0l0,0,0,0h0l0,0-.12-.13a3.87,3.87,0,0,1-.91-2.79V117.15q0-3.81,3.69-3.81c2.51,0,3.78,1.27,3.78,3.81v20a7.27,7.27,0,0,1,.09,1,5.94,5.94,0,0,1,1,.09h5.33c2.55,0,3.81,1.26,3.81,3.78S205.07,145.68,202.53,145.68Zm-76.31-28.52V142q0,3.72,3.73,3.72c2.49,0,3.74-1.28,3.74-3.82v-3.11h8.77q11.21,0,11.21-11.46v-2.72q0-11.24-11.26-11.25h-12.5C127.45,113.34,126.22,114.62,126.22,117.16Zm16.19,3.71c2.52,0,3.79,1.2,3.79,3.61v3c0,2.56-1.27,3.83-3.79,3.83h-8.72V120.87Zm15-3.71V142q0,3.72,3.73,3.72c2.49,0,3.74-1.28,3.74-3.82v-3.11h8.77q11.2,0,11.21-11.46v-2.72q0-11.24-11.26-11.25h-12.5C158.67,113.34,157.44,114.62,157.44,117.16Zm16.19,3.71c2.52,0,3.79,1.2,3.79,3.61v3c0,2.56-1.27,3.83-3.79,3.83h-8.72V120.87Zm-51.2,21V117c0-2.46-1.25-3.7-3.74-3.7l-12.41,0q-11.2,0-11.21,11.46V142q0,3.73,3.74,3.74c2.49,0,3.74-1.27,3.74-3.79l0-6.23,12.39,0v6.2c0,2.52,1.26,3.79,3.8,3.79S122.43,144.43,122.43,141.91Zm-19.88-13.73v-3.56c0-2.55,1.27-3.84,3.81-3.84H115v7.4ZM201.12,20.06V48.61c0,.36,0,.7,0,1l0,3.82q0,7.44-7.44,7.43h-5.23v-41c0-5-2.41-7.45-7.2-7.45H156.88q-22,0-21.95,21.92V53.23q0,22.35,21.85,22.34h17.09v7.08q0,7.44,7.3,7.45t7.28-7.25V75.47h4.9q22.32,0,22.35-21.86V20.06c0-5-2.47-7.43-7.38-7.43S201.12,15.1,201.12,20.06ZM234.65.36l-3.06,1.76-4.54,2.62L224,6.51a1.65,1.65,0,0,0-.73,2.54,1.69,1.69,0,0,0,2.6.69L228.92,8l4.53-2.62,3.06-1.76a1.67,1.67,0,0,0,.7-2.59A1.64,1.64,0,0,0,234.65.36ZM223,20.06V68.15c0,5,2.4,7.42,7.19,7.42s7.38-2.46,7.38-7.42V20.06c0-5-2.47-7.43-7.38-7.43S223,15.1,223,20.06Zm-117.21-.21v48.3c0,5,2.41,7.42,7.19,7.42s7.39-2.46,7.39-7.42V19.85c0-5-2.48-7.43-7.39-7.43S105.78,14.89,105.78,19.85Zm51.1,7.24c-4.92,0-7.39,2.36-7.39,7.05V53.52q0,7.48,7.39,7.48h10.05a12.58,12.58,0,0,1,1.68-.11h5.26V27.09ZM83.85,80h.06a5.81,5.81,0,0,1,1.17.12h.27a7.22,7.22,0,0,1,1.79.7l.13.08h0l0,0,.14.08h0l0,0h0l0,0h0l0,0,0,0h0l0,0h0l0,0h0a6.11,6.11,0,0,1,1.85,2.1,6.88,6.88,0,0,1,.84,3h0v.1h0v.46a6.54,6.54,0,0,1-.86,3,6,6,0,0,1-2.44,2.44,6.61,6.61,0,0,1-3.27.88,6.43,6.43,0,0,1-2.42-.46h-.08a7.48,7.48,0,0,1-.81-.39,6,6,0,0,1-2.44-2.44,6.52,6.52,0,0,1-.88-3.28,6.42,6.42,0,0,1,.69-2.91v0a3.49,3.49,0,0,1,.19-.39,6.07,6.07,0,0,1,2.48-2.44,1.59,1.59,0,0,1,.29-.15h0l.05,0h0A6.55,6.55,0,0,1,83.74,80ZM72.93,86.61a6.81,6.81,0,0,1-.85,3.23,6,6,0,0,1-2.44,2.46,6.88,6.88,0,0,1-3.34.89A6.63,6.63,0,0,1,63,92.33a6,6,0,0,1-2.44-2.44,6.53,6.53,0,0,1-.89-3.28,6.39,6.39,0,0,1,.89-3.27A6.08,6.08,0,0,1,63,80.88,6.55,6.55,0,0,1,66.3,80a6.87,6.87,0,0,1,3.34.88,6,6,0,0,1,2.44,2.47A6.86,6.86,0,0,1,72.93,86.61ZM83.85,97.5a6.84,6.84,0,0,1,3.23.85,6.08,6.08,0,0,1,2.46,2.44,6.88,6.88,0,0,1,.89,3.34,6.67,6.67,0,0,1-.87,3.26,5.92,5.92,0,0,1-2.44,2.44,6.51,6.51,0,0,1-3.27.88,6.38,6.38,0,0,1-3.28-.88,6.08,6.08,0,0,1-2.46-2.44,6.57,6.57,0,0,1-.88-3.26,6.87,6.87,0,0,1,.88-3.34,6.07,6.07,0,0,1,2.48-2.44A6.84,6.84,0,0,1,83.85,97.5Z"/></g></g></svg>