<?xml version="1.0" encoding="utf-8"?>
<!-- Generator: Adobe Illustrator 19.0.0, SVG Export Plug-In . SVG Version: 6.00 Build 0)  -->
<svg version="1.1" id="Layer_1" xmlns="http://www.w3.org/2000/svg" xmlns:xlink="http://www.w3.org/1999/xlink" x="0px" y="0px"
	 viewBox="0 0 320 320" style="enable-background:new 0 0 320 320;" xml:space="preserve">
<style type="text/css">
	.st0{clip-path:url(#XMLID_4_);}
	.st1{fill:#DA1A25;}
	.st2{fill:#080828;}
	.st3{fill:none;}
</style>
<g id="XMLID_3_">
	<defs>
		<rect id="XMLID_112_" x="0" y="0" width="320" height="320"/>
	</defs>
	<clipPath id="XMLID_4_">
		<use xlink:href="#XMLID_112_"  style="overflow:visible;"/>
	</clipPath>
	<g id="XMLID_5_" class="st0">
		<path id="XMLID_6_" class="st1" d="M0,0v249h226.5c16.9,0,32.1-12.4,33.7-29.3c1.8-19.4-13.3-35.7-32.3-35.7H62
			c-9.6,0-17-8.2-17-17.8v-0.1c0-9.6,7.6-17.4,17.1-17.5l165.9-0.9c37.7,0,68.2,30.5,68.2,68.2c0,37.7-30.6,68.2-68.3,68.2H0v36h320
			V0H0z"/>
		<rect id="XMLID_13_" x="-21" y="249" class="st2" width="21" height="35"/>
	</g>
</g>
<rect id="XMLID_17_" x="0" y="0" class="st3" width="320" height="320"/>
</svg>
