<?xml version="1.0" encoding="utf-8"?>
<!-- Generator: Adobe Illustrator 19.0.0, SVG Export Plug-In . SVG Version: 6.00 Build 0)  -->
<svg version="1.1" id="Layer_1" xmlns="http://www.w3.org/2000/svg" xmlns:xlink="http://www.w3.org/1999/xlink" x="0px" y="0px"
	 viewBox="0 0 188.5 133" style="enable-background:new 0 0 188.5 133;" xml:space="preserve">
<style type="text/css">
	.st0{fill:#FFFFFF;}
	.st1{fill:none;stroke:#FFFFFF;stroke-width:4;stroke-linejoin:round;stroke-miterlimit:10;}
	.st2{fill:none;stroke:#FFFFFF;stroke-width:3;stroke-miterlimit:10;}
</style>
<g id="XMLID_7_">
	<path id="XMLID_53_" class="st0" d="M181.5,55.7c0.5,1.4,0.5,3,0.3,4.4c-0.1,1.5-0.4,3-0.7,4.4l-0.4,2.1l-0.1,0.6
		c-0.1,0.2-0.1,0.4-0.2,0.6c-0.1,0.4-0.3,0.8-0.4,1.1c-0.6,1.4-1.4,2.8-2.3,4.1c-0.9,1.3-1.9,2.5-3.2,3.5c-0.7,0.5-1.4,1-2.4,1.4
		c-0.5,0.2-1.1,0.3-1.8,0.2c-0.3,0-0.8-0.2-1-0.2c-0.1,0-0.5-0.2-0.7-0.3c-1.9-0.9-3.2-2.6-3.8-4.5c-0.3-1-0.4-2-0.3-3.1
		c0.1-1.1,0.6-2.3,1.4-3.2c0.9-1,2.4-1.2,3.4-0.3c0.8,0.6,1,1.6,0.8,2.5l0,0.2c-0.8,3.2-2.4,6.2-4.7,8.6l-0.4,0.5l-0.5,0.4
		c-0.2,0.2-0.6,0.6-1,0.9c-0.7,0.5-1.4,1-2.2,1.5c-1.5,0.9-3.2,1.5-5.1,1.8c-1,0.1-1.9,0.2-3,0c-1-0.1-2-0.4-3-0.8l-0.4-0.2
		l-0.2-0.1l-0.1,0l0,0l-0.2-0.1c-0.2-0.1-0.2-0.1-0.6-0.4c-0.1-0.1-0.3-0.2-0.4-0.3l-0.3-0.3c-0.2-0.2-0.4-0.4-0.6-0.6
		c-0.8-0.8-1.4-1.8-1.8-2.8c-0.4-1-0.7-2-0.8-3.1c-0.1-1.1,0-2.2,0.3-3.3c0.3-1.1,0.8-2.3,1.7-3.3c0.9-1,2.1-1.8,3.4-2.2
		c1.8-0.5,3.8,0.5,4.3,2.3c0.3,0.9,0.2,1.8-0.2,2.6l0,0c-0.9,1.8-2.2,3.4-3.7,4.6c-1.5,1.3-3.1,2.2-4.8,2.9
		c-3.3,1.4-6.7,2.1-9.9,2.4c-0.8,0.1-1.6,0.2-2.4,0.2l-0.6,0l-0.6,0l-1.2,0c-1.5,0.1-3.1,0.1-4.7,0.1c-1.6,0-3.1,0-4.7,0
		c-1.6,0-3.1-0.1-4.7-0.2c-3.1-0.2-6.2-0.4-9.3-0.8c-3.1-0.4-6.2-0.8-9.2-1.4c-1.5-0.3-3-0.6-4.6-0.9c-1.5-0.3-3-0.7-4.5-1.1
		c-1.5-0.4-3-0.8-4.5-1.3c-1.5-0.4-3-0.9-4.4-1.4l4.6,0.3c1.5,0.1,3.1,0.2,4.6,0.3l4.6,0.2c1.5,0.1,3.1,0.1,4.6,0.2
		c1.5,0.1,3,0.1,4.6,0.1c1.5,0,3,0,4.6,0c1.5,0,3,0,4.5,0c1.5,0,3,0,4.5-0.1l4.5-0.2c1.5-0.1,3-0.2,4.5-0.3c1.5-0.1,3-0.2,4.5-0.4
		l2.2-0.2c0.7-0.1,1.4-0.2,2.2-0.3c2.8-0.4,5.6-1,7.9-2.1c2.3-1.1,4.1-2.5,5.1-4.4l4.1,4.9c-0.1,0-0.1,0-0.2,0.1
		c-0.1,0.1-0.2,0.2-0.3,0.5c-0.2,0.5-0.2,1.4,0.1,2.1c0.1,0.3,0.3,0.6,0.5,0.8c0,0,0.1,0.1,0.1,0.1l0.1,0.1c0,0,0,0,0,0
		c-0.1,0,0.2,0.1,0.3,0.2l0,0c0.1,0.1-0.1-0.1-0.1-0.1l0,0l0,0l0,0l0.1,0L153,76c0.7,0.4,1.5,0.5,2.5,0.4c1-0.1,2-0.4,3-0.8
		c0.5-0.2,1-0.5,1.4-0.8c0.2-0.2,0.4-0.2,0.7-0.5l0.2-0.2l0.1-0.1l0,0l0,0c0.1-0.1-0.1,0.1-0.1,0.1l0,0l0,0l0.3-0.3
		c1.8-1.6,3.2-3.7,4.1-6l4.2,2.3c-0.2,0.2-0.4,0.4-0.5,0.7c-0.1,0.3-0.1,0.8-0.1,1.2c0.2,0.9,0.7,1.8,1.4,2.3
		c0.1,0.1,0.1,0.1,0.3,0.2l0.1,0l0,0l0-0.2c0.1,0,0.1-0.2,0.1-0.2h0.1v0.5c0,0-0.1,0-0.1,0c0,0,0.1,0.1,0.3,0
		c0.4-0.1,0.9-0.3,1.4-0.6c1.1-0.7,2.1-1.6,3-2.6c0.9-1,1.8-2.1,2.5-3.3c0.2-0.3,0.3-0.6,0.5-0.9l0.2-0.4l0.2-0.5l0.8-2.1
		c0.5-1.4,1-2.7,1.4-4.1c0.2-0.7,0.3-1.4,0.4-2.1C181.6,57.1,181.6,56.4,181.5,55.7z"/>
</g>
<g id="XMLID_8_">
	<path id="XMLID_51_" class="st0" d="M165.6,53c0.5-0.1,1-0.2,1.4-0.4c0.4-0.2,0.9-0.4,1.2-0.6c0.8-0.5,1.4-1.1,2-1.9
		c0.3-0.4,0.6-0.7,0.8-1.1c0.2-0.4,0.5-0.8,0.7-1.2c0.2-0.4,0.4-0.8,0.6-1.3c0.2-0.4,0.3-0.8,0.5-1.3c0.7-1.7,1.1-3.5,1.3-5.3
		c0.2-1.8,0.3-3.6,0.1-5.4l3.1,1.5c-0.3,0.3-0.7,0.5-1,0.8l-1,0.9l-0.9,1l-0.8,1l-0.7,1.1c-0.2,0.4-0.4,0.8-0.7,1.2l-0.6,1.2
		l-0.5,1.3l-0.4,1.3c-0.1,0.5-0.2,0.9-0.3,1.4l-0.2,1.4l-0.1,1.4l0,1.4c0,0.5,0.1,1,0.1,1.5l0.2,1.5c0.1,0.5,0.2,1,0.3,1.5
		c-0.3-0.4-0.6-0.8-0.9-1.3l-0.7-1.4c-0.2-0.5-0.4-1-0.6-1.5l-0.4-1.5l-0.2-1.6l-0.1-1.6c0-0.5,0-1.1,0.1-1.6l0.2-1.6l0.4-1.6
		l0.5-1.6c0.2-0.5,0.4-1,0.7-1.5l0.8-1.5l1-1.4l1.1-1.3l1.2-1.2l1.4-1c0.9-0.6,2.1-0.5,2.7,0.4c0.2,0.3,0.4,0.7,0.4,1l0,0.1
		c0,0.5,0.1,1.1,0.1,1.6c0,0.5,0,1.1,0,1.6c-0.1,1.1-0.2,2.1-0.4,3.2c-0.4,2.1-1.2,4.1-2.2,6c-0.2,0.5-0.6,1-0.8,1.4
		c-0.3,0.4-0.6,0.9-0.9,1.3c-0.7,0.8-1.5,1.6-2.3,2.2c-0.9,0.6-1.8,1.2-2.9,1.4c-0.5,0.1-1.1,0.2-1.6,0.2
		C166.6,53.2,166.1,53.1,165.6,53z"/>
</g>
<path id="XMLID_9_" class="st1" d="M148.6,102c0.7-0.5,1.5-1.1,2.2-1.6c-1-0.8-2.6,0.8-1.8,1.8c0.7,0,1.4,0,2.2,0c0-1.2,0-2.3,0-3.5
	c-2-0.2-3.6,2.5-2.4,4.2c0.8-0.2,1.7-0.5,1.9-1.3c0.2-0.8-1.2-1.5-1.4-0.7"/>
<g id="XMLID_10_">
	<path id="XMLID_44_" class="st0" d="M126.5,58.3c-1.8,0.5-3.5,0.9-5.3,1.3c-1.8,0.4-3.6,0.8-5.3,1.1c-1.8,0.3-3.6,0.6-5.3,0.9
		c-1.8,0.3-3.6,0.6-5.4,0.8l0-5.5c1.7,0,3.5-0.1,5.2-0.1c1.7,0,3.5,0,5.2,0c1.7,0,3.5,0.1,5.2,0.1l5.2,0.2c1.9,0.1,3.4,1.6,3.4,3.5
		c-0.1,1.9-1.6,3.2-3.5,3.2h0l-5.1,0.1l-5.1-0.1c-1.7-0.1-3.4-0.1-5.1-0.2c-1.7-0.1-3.4-0.2-5.1-0.3l-0.4,0c-1.5-0.1-2.7-1.5-2.6-3
		c0.1-1.5,1.4-2.6,2.8-2.6c1.6,0,3.2,0.1,4.8,0.2c1.6,0.1,3.2,0.2,4.8,0.3c1.6,0.1,3.2,0.2,4.8,0.4c1.6,0.1,3.2,0.4,4.8,0.5l0,1.1
		c-0.9-0.3-1.9-0.6-2.8-0.9c1-0.1,1.9-0.2,2.9-0.2c0.3,0,0.6,0.2,0.6,0.5c0,0.3-0.2,0.5-0.4,0.6l-0.2,0c-1.6,0.3-3.2,0.7-4.8,1
		c-1.6,0.3-3.2,0.6-4.8,0.8c-1.6,0.3-3.2,0.5-4.8,0.7c-1.6,0.2-3.2,0.4-4.8,0.6l-0.1-5.6c1.7-0.1,3.4-0.2,5.1-0.3
		c1.7-0.1,3.4-0.1,5.1-0.2l5.1-0.1l5.1,0l-0.2,7l-5.2-0.3c-1.7-0.1-3.5-0.2-5.2-0.4c-1.7-0.2-3.5-0.3-5.2-0.5
		c-1.7-0.2-3.5-0.4-5.2-0.6l-0.4,0c-1.5-0.2-2.6-1.6-2.4-3.1c0.2-1.4,1.4-2.4,2.7-2.4c1.8,0,3.6,0,5.4,0.1c1.8,0.1,3.6,0.1,5.4,0.2
		c1.8,0.1,3.6,0.2,5.4,0.4C122.8,57.9,124.7,58,126.5,58.3z"/>
</g>
<g id="XMLID_11_">
	<path id="XMLID_28_" class="st0" d="M62.6,69.1c0-0.7,0-1.5,0-2.2c0-0.3,0.2-0.5,0.5-0.5c0.2,0,0.3,0.1,0.4,0.2l0.1,0.2
		c0.8,1.2,1,2.9,0.6,4.4c-0.4,1.5-1.1,2.8-2,4c-0.4,0.6-1,1.1-1.5,1.6c-0.5,0.5-1.1,1-1.8,1.4c-0.4,0.2-0.8,0.4-1.2,0.6
		c-0.2,0.1-0.5,0.2-0.7,0.2l-0.4,0.1l-0.2,0l-0.1,0l0,0c0.2,0-0.3,0-0.2,0l0,0l-0.5,0.1c0,0-0.2,0-0.4,0l-0.5,0
		c-0.4,0-0.6-0.1-0.9-0.1c-0.3-0.1-0.5-0.1-0.8-0.2c-1-0.3-1.9-0.9-2.6-1.6c-0.7-0.7-1.3-1.4-1.8-2.2c-0.9-1.6-1.4-3.4-1.4-5.3
		c0-0.7,0.2-1.8,0.3-2.5c0.2-0.8,0.4-1.5,0.7-2.2c0.6-1.4,1.2-2.6,1.9-3.7l0.9-1.6l0.9-1.6l0.8-1.5l0.8-1.6c0.5-1.1,0.9-2.1,1.4-3.2
		c0.4-1.1,0.8-2.2,1.2-3.3c0.4-1.1,0.7-2.3,1-3.4c0.3-1.2,0.6-2.3,0.9-3.5c0.3-1.2,0.5-2.4,0.7-3.7l0.6-3.8c0.3,0.6,0.5,1.2,0.7,1.8
		c0.2,0.6,0.4,1.2,0.6,1.9c0.3,1.3,0.6,2.6,0.7,3.9c0.2,1.3,0.3,2.6,0.2,4c0,0.7,0,1.3,0,2c0,0.7-0.1,1.3-0.2,2
		c-0.2,1.3-0.4,2.7-0.7,4c-0.3,1.3-0.7,2.6-1.1,3.9c-0.2,0.6-0.5,1.3-0.7,1.9l-0.8,1.9l-0.4,0.8l-0.5,0.9l-0.9,1.7
		c-0.6,1.1-1.2,2-1.5,3c-0.2,0.5-0.4,0.9-0.5,1.3c-0.1,0.5-0.2,0.7-0.3,1.2c-0.1,0.5,0,1.3,0.3,1.9c0.2,0.6,0.7,1.2,0.9,1.4
		c0,0,0.1,0.1,0.1,0.1c0,0,0.1,0.1,0,0.1c0,0,0,0,0,0c0,0,0,0.1,0.1,0.1L56,74h0c0.1,0-0.4,0-0.2,0l0,0l0,0h0l0.1,0
		c0.1,0,0.1,0,0.2,0c0.2,0,0.3-0.1,0.5-0.1c0.4-0.1,0.9-0.3,1.4-0.6c0.5-0.2,0.9-0.5,1.4-0.8c0.9-0.6,1.7-1.3,2.3-2.2
		c0.6-0.8,1-1.8,0.9-2.9l1.1-0.1C63.4,67.9,63,68.5,62.6,69.1z"/>
</g>
<path id="XMLID_12_" class="st2" d="M72.9,35.5c-1.2,0.7-2.2,1.8-2.8,3.2c0.9,0.9,2.7,0.5,3.3-0.6c0.5-1.2-0.4-2.7-1.7-2.9
	s-2.5,1.3-2.1,2.5c0.8,0.2,1.6,0.4,2.4,0.1c0.7-0.3,1.3-1.3,0.8-1.9c-1.5,0.4-2.2,2.4-1.4,3.7c1.2,0.6,2.7-1.1,2-2.2"/>
<g id="XMLID_13_">
	<path id="XMLID_24_" class="st0" d="M28.3,35.8c2,0.2,4.1,0.4,6.1,0.7c2,0.3,4,0.6,6.1,0.9l3,0.5c1,0.2,2.2,0.4,3.4,1
		c0.6,0.3,1.2,0.6,1.8,1.1c0.6,0.5,1.1,1.2,1.5,1.8c0.4,0.7,0.6,1.5,0.7,2.4c0.1,0.9-0.2,1.9-0.7,2.8c-0.4,0.8-1.3,1.2-2.1,1.2
		l-0.3,0c-3.7-0.1-7.3-0.2-11-0.3c-3.7-0.2-7.3-0.3-11-0.6l-2.7-0.2c-0.9,0-1.6-0.1-2.3,0c-0.7,0-1.3,0.1-1.7,0.3
		c-0.1,0-0.1,0-0.2,0.1l-0.1,0l0,0l0,0c-0.2,0.1,0.2-0.1,0.2-0.1l-0.1,0l-0.6,0.3c-0.1,0.1-0.1,0.1-0.1,0.1c0,0,0,0-0.1,0.1
		c0,0-0.1,0.1-0.2,0.2c-0.7,0.6-1.4,1.7-1.8,3c-0.5,1.3-0.8,2.9-0.9,4.6c0,0.4-0.1,0.9-0.1,1.2L15,58.3c-0.1,0.9-0.1,1.8-0.1,2.7
		c-0.1,1.7-0.1,3.5-0.1,5.3c0,3.6,0.1,7.1,0.3,10.7c0.1,1.8,0.3,3.6,0.4,5.4c0.2,1.8,0.4,3.6,0.6,5.4c0.2,1.8,0.5,3.6,0.7,5.4
		l0.9,5.5c-0.9-1.6-1.6-3.3-2.4-5l-1-2.6l-0.9-2.6c-0.6-1.8-1.1-3.5-1.6-5.3c-0.5-1.8-0.9-3.6-1.3-5.4c-0.4-1.8-0.7-3.7-1-5.5
		c-0.3-1.9-0.5-3.7-0.6-5.6c-0.1-1.9-0.5-3.7-0.5-5.6c0-1-0.2-1.9-0.2-2.8v-1.4c0-0.6,0.2-1,0.3-1.5c0.1-2,0.5-4.1,1.1-6.2
		c0.7-2.1,1.8-4.4,3.9-6.2c0.4-0.4,1.3-1,1.8-1.3l0.6-0.3l0.1,0l0.2-0.1l0,0l0.1,0l0.2-0.1c0.2-0.1,0.3-0.1,0.5-0.2
		c1.3-0.4,2.5-0.6,3.7-0.6c1.1,0,2.2,0,3.2,0.1l2.8,0.3c3.6,0.4,7.3,0.8,10.9,1.2c3.6,0.4,7.3,0.9,10.9,1.5l-2.3,1.2
		c0,0,0.1,0,0.1-0.1c0-0.1,0-0.3,0-0.5c-0.1-0.2-0.2-0.4-0.3-0.6c-0.2-0.2-0.4-0.4-0.7-0.6c-0.6-0.4-1.4-0.8-2.3-1.1l-2.9-1.1
		c-1.9-0.7-3.8-1.4-5.7-2.2C32.1,37.4,30.2,36.6,28.3,35.8z"/>
</g>
</svg>
