<?xml version="1.0" encoding="utf-8"?>
<!-- Generator: Adobe Illustrator 19.0.0, SVG Export Plug-In . SVG Version: 6.00 Build 0)  -->
<svg version="1.1" id="Layer_1" xmlns="http://www.w3.org/2000/svg" xmlns:xlink="http://www.w3.org/1999/xlink" x="0px" y="0px"
	 viewBox="0 0 188.5 133" style="enable-background:new 0 0 188.5 133;" xml:space="preserve">
<style type="text/css">
	.st0{fill:#FFFFFF;}
	.st1{fill:none;stroke:#FFFFFF;stroke-width:4;stroke-linejoin:round;stroke-miterlimit:10;}
	.st2{fill:none;stroke:#FFFFFF;stroke-width:4;stroke-miterlimit:10;}
</style>
<g id="XMLID_7_">
	<path id="XMLID_53_" class="st0" d="M181.5,55.7c0.4,1.4,0.4,2.9,0.2,4.4c-0.2,1.5-0.5,2.9-0.8,4.4l-0.5,2.1l-0.1,0.6
		c-0.1,0.2-0.1,0.4-0.2,0.6c-0.1,0.4-0.3,0.7-0.4,1.1c-0.6,1.4-1.4,2.7-2.3,3.9c-0.9,1.2-1.9,2.4-3.2,3.4c-0.6,0.5-1.4,1-2.3,1.3
		c-0.5,0.1-1,0.2-1.6,0.2c-0.3,0-0.6-0.1-0.9-0.2c-0.1,0-0.4-0.2-0.6-0.3c-1.7-0.9-2.9-2.4-3.4-4.2c-0.3-0.9-0.4-1.9-0.3-2.9
		c0.1-1,0.5-2,1.2-2.8c0.6-0.7,1.7-0.8,2.5-0.2c0.5,0.5,0.7,1.2,0.6,1.8l0,0.1c-0.8,3.1-2.4,5.9-4.6,8.3l-0.4,0.4l-0.4,0.4
		c-0.2,0.2-0.6,0.5-0.9,0.8c-0.7,0.5-1.3,1-2.1,1.4c-1.4,0.8-3.1,1.4-4.8,1.7c-0.9,0.1-1.8,0.1-2.7,0c-0.9-0.1-1.9-0.4-2.7-0.8
		l-0.3-0.2l-0.2-0.1l-0.1,0l0,0l-0.1-0.1c-0.2-0.1-0.3-0.1-0.6-0.3c-0.5-0.4-0.9-0.7-1.2-1.1c-0.7-0.8-1.2-1.6-1.6-2.5
		c-0.4-0.9-0.6-1.8-0.7-2.8c-0.1-1,0-2,0.2-3c0.3-1,0.7-2,1.5-2.9c0.8-0.9,1.8-1.6,2.9-1.9c1.3-0.4,2.7,0.4,3.1,1.7
		c0.2,0.6,0.1,1.3-0.2,1.8l0,0c-0.9,1.7-2.1,3.1-3.4,4.3c-1.4,1.2-2.9,2.1-4.5,2.8c-3.2,1.4-6.4,2-9.6,2.4c-1.6,0.2-3.2,0.3-4.7,0.3
		c-1.5,0.1-3.1,0.1-4.7,0.2c-1.6,0-3.1,0-4.7,0c-1.6,0-3.1,0-4.7-0.1c-3.1-0.1-6.2-0.3-9.3-0.6c-1.5-0.1-3.1-0.4-4.6-0.5
		c-1.5-0.2-3.1-0.4-4.6-0.7c-1.5-0.2-3-0.5-4.6-0.8c-1.5-0.3-3-0.6-4.5-1c-1.5-0.4-3-0.7-4.5-1.1c-1.5-0.4-3-0.8-4.4-1.3
		c1.5,0.1,3.1,0.4,4.6,0.5c1.5,0.2,3.1,0.3,4.6,0.4c1.5,0.1,3,0.3,4.6,0.4c1.5,0.1,3.1,0.2,4.6,0.3c3,0.2,6.1,0.3,9.1,0.3
		c3,0.1,6.1,0.1,9.1,0l4.6-0.1c1.5,0,3-0.2,4.5-0.2c1.5-0.1,3-0.2,4.5-0.3c1.6-0.1,3-0.2,4.4-0.4c2.9-0.4,5.7-1,8.2-2.1
		c2.5-1.1,4.5-2.7,5.6-4.9l2.9,3.5c-0.3,0.1-0.5,0.2-0.6,0.4c-0.2,0.2-0.4,0.5-0.5,0.9c-0.2,0.8-0.2,1.8,0.2,2.7
		c0.2,0.4,0.4,0.8,0.7,1.1c0.1,0.1,0.3,0.3,0.4,0.4c0,0,0.2,0.2,0.3,0.2l0,0c0.1,0-0.1-0.1-0.1,0l0,0l0,0l0,0l0.1,0l0.2,0.1
		c0.9,0.4,1.9,0.6,3,0.5c1.1-0.1,2.2-0.4,3.3-1c0.5-0.3,1.1-0.6,1.6-0.9c0.2-0.2,0.4-0.3,0.7-0.6l0.4-0.3l0.4-0.3
		c1.8-1.7,3.3-4,4.1-6.4l3,1.7c-0.6,0.5-0.8,1.5-0.6,2.6c0.2,1,0.9,2.1,1.7,2.6c0.1,0.1,0.1,0.1,0.3,0.2c0.1,0.1,0.1,0.1,0.2,0.1
		c0.1,0,0.3,0,0.6,0c0.5-0.1,1-0.4,1.6-0.7c1.1-0.7,2.1-1.7,3-2.7c0.9-1.1,1.8-2.2,2.4-3.4c0.2-0.3,0.3-0.6,0.5-0.9l0.2-0.5l0.2-0.5
		l0.7-2.1c0.5-1.4,0.9-2.8,1.3-4.2C181.5,58.6,181.7,57.1,181.5,55.7z"/>
</g>
<g id="XMLID_8_">
	<path id="XMLID_51_" class="st0" d="M165.6,53c0.5-0.1,1-0.2,1.4-0.4c0.4-0.2,0.9-0.4,1.2-0.6c0.8-0.5,1.4-1.1,2-1.9
		c0.3-0.4,0.6-0.7,0.8-1.1c0.2-0.4,0.5-0.8,0.7-1.2c0.2-0.4,0.4-0.8,0.6-1.3c0.2-0.4,0.3-0.8,0.5-1.3c0.7-1.7,1.1-3.5,1.3-5.3
		c0.2-1.8,0.3-3.6,0.1-5.4l3.1,1.5c-0.3,0.3-0.7,0.5-1,0.8l-1,0.9l-0.9,1l-0.8,1l-0.7,1.1c-0.2,0.4-0.4,0.8-0.7,1.2l-0.6,1.2
		l-0.5,1.3l-0.4,1.3c-0.1,0.5-0.2,0.9-0.3,1.4l-0.2,1.4l-0.1,1.4l0,1.4c0,0.5,0.1,1,0.1,1.5l0.2,1.5c0.1,0.5,0.2,1,0.3,1.5
		c-0.3-0.4-0.6-0.8-0.9-1.3l-0.7-1.4c-0.2-0.5-0.4-1-0.6-1.5l-0.4-1.5l-0.2-1.6l-0.1-1.6c0-0.5,0-1.1,0.1-1.6l0.2-1.6l0.4-1.6
		l0.5-1.6c0.2-0.5,0.4-1,0.7-1.5l0.8-1.5l1-1.4l1.1-1.3l1.2-1.2l1.4-1c0.9-0.6,2.1-0.5,2.7,0.4c0.2,0.3,0.4,0.7,0.4,1l0,0.1
		c0,0.5,0.1,1.1,0.1,1.6c0,0.5,0,1.1,0,1.6c-0.1,1.1-0.2,2.1-0.4,3.2c-0.4,2.1-1.2,4.1-2.2,6c-0.2,0.5-0.6,1-0.8,1.4
		c-0.3,0.4-0.6,0.9-0.9,1.3c-0.7,0.8-1.5,1.6-2.3,2.2c-0.9,0.6-1.8,1.2-2.9,1.4c-0.5,0.1-1.1,0.2-1.6,0.2
		C166.6,53.2,166.1,53.1,165.6,53z"/>
</g>
<path id="XMLID_9_" class="st1" d="M148.6,102c0.7-0.5,1.5-1.1,2.2-1.6c-1-0.8-2.6,0.8-1.8,1.8c0.7,0,1.4,0,2.2,0c0-1.2,0-2.3,0-3.5
	c-2-0.2-3.6,2.5-2.4,4.2c0.8-0.2,1.7-0.5,1.9-1.3c0.2-0.8-1.2-1.5-1.4-0.7"/>
<g id="XMLID_10_">
	<path id="XMLID_44_" class="st0" d="M126.5,58.3c-3.6,0.5-7.2,0.8-10.7,1.2c-3.6,0.4-7.2,0.7-10.8,1l0-1.6c3.5,0.1,7,0.2,10.5,0.3
		l10.5,0.4c0.6,0,1,0.5,1,1c0,0.5-0.5,1-1,1l-10.3,0.2c-3.4-0.1-6.9,0.1-10.3,0.1h0c-0.4-1-0.8-0.6-0.8-1.1c0-0.4,0.4-0.9,0.8-0.9
		c3.2-0.1,6.4-0.2,9.6-0.3c3.2,0,6.4-0.1,9.6-0.1l0,0.3l-2.8-0.5l2.9,0.2c0.1,0,0.2,0.1,0.2,0.2c0,0.1-0.1,0.2-0.1,0.2h0
		c-3.2,0-6.4,0.6-9.6,0.8c-3.2,0.3-6.4,0.5-9.6,0.7l0-1.6c3.4-0.1,6.9-0.1,10.3-0.1l10.3,0l0,2l-10.5-0.6c-3.5-0.2-7-0.4-10.4-0.7
		l0,0c-0.4,0-0.8-0.4-0.7-0.8c0-0.4,0.4-0.7,0.7-0.7c3.6-0.2,7.2-0.3,10.8-0.4C119.3,58.5,122.9,58.3,126.5,58.3z"/>
</g>
<g id="XMLID_11_">
	<path id="XMLID_28_" class="st0" d="M62.6,69.1c0-0.7,0.1-1.4,0.2-2.1c0-0.2,0.2-0.4,0.4-0.3c0.1,0,0.2,0.1,0.3,0.2l0.1,0.1
		c0.7,1.2,0.8,2.8,0.4,4.2c-0.4,1.4-1.1,2.6-2,3.7c-0.4,0.5-0.9,1-1.5,1.5c-0.5,0.5-1.1,0.9-1.7,1.3c-0.3,0.2-0.7,0.4-1.1,0.5
		c-0.2,0.1-0.4,0.1-0.6,0.2l-0.3,0.1l-0.2,0l-0.1,0l0,0l-0.2,0l-0.5,0c-0.1,0-0.2,0-0.3,0l-0.4,0c-0.3,0-0.5-0.1-0.8-0.1
		c-0.2-0.1-0.5-0.1-0.7-0.2c-0.9-0.3-1.7-0.8-2.3-1.4c-0.6-0.6-1.2-1.3-1.6-2c-0.8-1.4-1.3-3.1-1.2-4.9c0-0.7,0.2-1.6,0.3-2.3
		c0.2-0.7,0.4-1.4,0.7-2.1c0.5-1.3,1.2-2.5,1.8-3.6l0.9-1.6l0.9-1.6l0.8-1.5l0.7-1.6c0.5-1.1,0.9-2.2,1.3-3.3
		c0.4-1.1,0.8-2.3,1.1-3.4c0.4-1.2,0.6-2.3,0.9-3.5c0.3-1.2,0.5-2.4,0.7-3.6c0.2-1.2,0.4-2.4,0.5-3.7c0.1-1.2,0.2-2.5,0.3-3.8
		c0.2,0.6,0.4,1.2,0.6,1.8c0.1,0.6,0.3,1.2,0.4,1.9c0.3,1.3,0.4,2.5,0.5,3.8c0.1,1.3,0.1,2.6,0.1,3.9c0,0.7,0,1.3-0.1,2
		c0,0.7-0.1,1.3-0.2,2c-0.2,1.3-0.4,2.6-0.7,3.9c-0.3,1.3-0.7,2.5-1.1,3.8c-0.2,0.6-0.5,1.2-0.7,1.9L57.3,61
		c-0.3,0.6-0.5,1.1-0.9,1.7l-0.9,1.7c-0.6,1.1-1.2,2.1-1.6,3.1c-0.2,0.5-0.4,1-0.5,1.4c-0.1,0.5-0.2,0.8-0.3,1.4
		c-0.1,0.7,0.1,1.6,0.4,2.4c0.3,0.8,0.9,1.4,1.4,1.7c0.1,0.1,0.1,0.1,0.2,0.1c0.1,0,0.1,0.1,0.2,0.1c0,0,0,0,0,0c0,0,0,0.2,0.1,0.2
		L56,75h0c0,0-0.3,0-0.1,0h0h0H56l0.1-0.2c0.1,0,0.2-0.1,0.3-0.1c0.2,0,0.4-0.1,0.6-0.2c0.5-0.2,0.9-0.4,1.4-0.7
		c0.5-0.3,0.9-0.6,1.4-0.9c0.9-0.7,1.7-1.5,2.3-2.4c0.6-0.9,0.9-2,0.7-3.2l0.8,0C63.3,67.9,63,68.5,62.6,69.1z"/>
</g>
<path id="XMLID_12_" class="st2" d="M72.9,35.5c-1.2,0.7-2.2,1.8-2.8,3.2c0.9,0.9,2.7,0.5,3.3-0.6c0.5-1.2-0.4-2.7-1.7-2.9
	s-2.5,1.3-2.1,2.5c0.8,0.2,1.6,0.4,2.4,0.1c0.7-0.3,1.3-1.3,0.8-1.9c-1.5,0.4-2.2,2.4-1.4,3.7c1.2,0.6,2.7-1.1,2-2.2"/>
<g id="XMLID_13_">
	<path id="XMLID_24_" class="st0" d="M28.3,35.8c2,0.3,4,0.6,6,1c2,0.3,4,0.7,6,1.1c1,0.2,2,0.4,3,0.6c1,0.2,2.1,0.5,3.2,1
		c0.6,0.3,1.1,0.6,1.6,1c0.5,0.5,1,1,1.3,1.7c0.3,0.6,0.6,1.3,0.6,2.1c0,0.8-0.1,1.7-0.6,2.4c-0.3,0.6-0.9,0.9-1.5,0.8l-0.1,0
		c-3.7-0.2-7.3-0.3-11-0.5c-3.7-0.2-7.3-0.4-10.9-0.7l-2.7-0.2c-0.9-0.1-1.7-0.1-2.4-0.1c-0.7,0-1.4,0.1-2,0.4c-0.1,0-0.1,0-0.2,0.1
		l-0.1,0l0,0l0,0c-0.1,0.1,0.2-0.1,0.1-0.1l-0.1,0l-0.6,0.3c-0.3,0.2-0.3,0.2-0.6,0.5c-0.9,0.8-1.6,2-2.1,3.5
		c-0.5,1.5-0.8,3.1-0.9,4.8c0,0.4-0.1,0.9-0.1,1.3L14,58.2C14,59.2,14,60,13.9,60.9c0,1.8-0.1,3.6-0.1,5.4c0,3.6,0.2,7.2,0.5,10.8
		c0.3,3.6,0.7,7.2,1.3,10.8c0.3,1.8,0.6,3.6,0.9,5.4l0.5,2.7l0.5,2.7c-0.8-1.7-1.5-3.4-2.1-5.1l-0.9-2.6l-0.8-2.6
		c-0.5-1.8-1.1-3.5-1.5-5.3c-0.4-1.8-0.8-3.6-1.2-5.4c-0.3-1.8-0.6-3.7-0.8-5.5c-0.2-1.8-0.5-3.7-0.6-5.5c-0.1-1.9-0.2-3.7-0.3-5.6
		c0-0.9,0-1.9,0-2.8l0-1.4c0-0.5,0-1,0.1-1.5c0.1-1.9,0.4-3.9,1-6c0.6-2,1.7-4.1,3.6-5.7c0.4-0.4,1.1-0.8,1.6-1.1l0.6-0.3l0.1,0
		l0.2-0.1l0,0l0.1,0l0.2-0.1c0.1-0.1,0.3-0.1,0.4-0.2c1.2-0.4,2.3-0.5,3.4-0.6c1.1,0,2.1,0,3,0.1l2.7,0.3c3.6,0.3,7.3,0.7,10.9,1.1
		c3.6,0.4,7.3,0.9,10.9,1.3l-1.7,0.8c0.1-0.1,0.2-0.2,0.2-0.5c0-0.2,0-0.5-0.1-0.8c-0.1-0.3-0.3-0.6-0.5-0.8
		c-0.2-0.3-0.5-0.5-0.9-0.7c-0.7-0.4-1.6-0.8-2.5-1.1c-1-0.3-1.9-0.7-2.9-1c-1.9-0.7-3.9-1.3-5.8-2C32.1,37.2,30.2,36.5,28.3,35.8z"
		/>
</g>
</svg>
