<?xml version="1.0" encoding="utf-8"?>
<!-- Generator: Adobe Illustrator 19.0.0, SVG Export Plug-In . SVG Version: 6.00 Build 0)  -->
<svg version="1.1" id="Layer_1" xmlns="http://www.w3.org/2000/svg" xmlns:xlink="http://www.w3.org/1999/xlink" x="0px" y="0px"
	 viewBox="0 0 188.5 133" style="enable-background:new 0 0 188.5 133;" xml:space="preserve">
<style type="text/css">
	.st0{fill:#FFFFFF;}
</style>
<g id="XMLID_7_">
	<path id="XMLID_53_" class="st0" d="M179.5,63.7c0.8,2.3,1.1,4.8,0.5,7.3c-0.1,0.6-0.3,1.2-0.6,1.8c-0.1,0.2-0.1,0.3-0.2,0.4
		c0,0.1-0.1,0.1-0.1,0.3l-0.1,0.2c-0.1,0.2-0.3,0.5-0.6,0.8c-0.8,1.1-1.9,2-3.1,2.6c-1.2,0.6-2.7,1-4.2,0.9c-0.4,0-0.8-0.1-1.1-0.2
		l-0.3-0.1l-0.1,0l-0.1,0l-0.2-0.1l-0.4-0.2c-0.3-0.1-0.8-0.4-1.1-0.6c-0.3-0.2-0.6-0.5-0.9-0.8c-0.6-0.6-1-1.2-1.4-1.9
		c-0.3-0.7-0.6-1.4-0.7-2.3c-0.1-0.8-0.1-1.7,0.1-2.5c0.2-0.9,0.6-1.7,1.2-2.4c0.7-0.9,2-1.1,2.9-0.3c0.7,0.5,0.9,1.4,0.7,2.2l0,0.2
		c-0.8,3.1-2.4,6-4.6,8.4l-0.4,0.4l-0.4,0.4c-0.2,0.2-0.6,0.6-1,0.8c-0.7,0.5-1.4,1-2.1,1.4c-1.5,0.8-3.2,1.5-5,1.7
		c-0.9,0.1-1.9,0.2-2.8,0c-1-0.1-1.9-0.4-2.9-0.8l-0.3-0.2l-0.2-0.1l-0.1,0l0,0l-0.2-0.1l-0.5-0.3c-0.1-0.1-0.1-0.1-0.2-0.2
		l-0.4-0.3c-0.2-0.2-0.5-0.4-0.7-0.7c-0.7-0.8-1.3-1.7-1.7-2.7c-0.4-1-0.6-1.9-0.7-3c-0.1-1,0-2.1,0.2-3.1c0.3-1.1,0.8-2.1,1.6-3.1
		c0.8-1,2-1.6,3.2-2c1.5-0.5,3.2,0.3,3.7,1.9c0.3,0.8,0.2,1.6-0.2,2.3l0,0.1c-0.9,1.7-2.1,3.2-3.6,4.5c-1.4,1.2-3,2.1-4.6,2.9
		c-3.2,1.4-6.5,2-9.8,2.4c-1.6,0.2-3.3,0.3-4.8,0.3c-1.5,0.1-3.1,0.1-4.7,0.2c-1.6,0-3.1,0-4.7,0c-1.6,0-3.1-0.1-4.7-0.1
		c-3.1-0.1-6.2-0.4-9.3-0.7c-3.1-0.3-6.2-0.8-9.2-1.3c-1.5-0.3-3-0.6-4.6-0.9c-1.5-0.3-3-0.6-4.5-1c-1.5-0.4-3-0.8-4.5-1.2
		c-1.5-0.4-3-0.9-4.4-1.4l4.6,0.4c1.5,0.2,3.1,0.3,4.6,0.4c1.5,0.1,3.1,0.2,4.6,0.3c1.5,0.1,3.1,0.2,4.6,0.2c1.5,0.1,3,0.1,4.6,0.2
		c1.5,0,3,0.1,4.6,0.1c1.5,0,3,0,4.6,0c1.5,0,3,0,4.5-0.1c1.5,0,3-0.1,4.5-0.2c1.5-0.1,3-0.2,4.5-0.2c1.5-0.1,3-0.2,4.5-0.3
		c1.6-0.1,3-0.3,4.4-0.5c1.4-0.2,2.8-0.5,4.2-0.8c1.3-0.3,2.7-0.7,3.8-1.3c2.4-1.1,4.3-2.6,5.3-4.6l3.5,4.2
		c-0.2,0.1-0.3,0.1-0.4,0.3c-0.1,0.2-0.3,0.3-0.4,0.7c-0.1,0.3-0.2,0.7-0.1,1.1c0,0.4,0.1,0.8,0.3,1.2c0.1,0.4,0.4,0.7,0.6,1
		c0,0,0,0,0.1,0.1c0,0,0,0,0,0.1c0,0,0.1,0.1,0.2,0.1l0.4,0.3l0,0c-0.4-0.2-0.1-0.1-0.2-0.1l0,0l0,0l0,0l0.1,0l0.1,0.1
		c0.8,0.4,1.7,0.5,2.7,0.5c1-0.1,2.1-0.4,3.2-0.9c0.5-0.2,1-0.6,1.5-0.9c0.2-0.2,0.4-0.3,0.7-0.5l0.3-0.3l0.3-0.3
		c1.8-1.7,3.2-3.9,4.1-6.2l3.6,2c-0.2,0.2-0.3,0.4-0.5,0.7c-0.1,0.3-0.2,0.6-0.1,1c0,0.8,0.3,1.6,0.8,2.2c0.1,0.2,0.3,0.3,0.4,0.4
		c0.2,0.2,0.2,0.2,0.4,0.3l0.4,0.2l0,0l0,0l0,0c0,0,0.1,0-0.1,0l0,0l0.1,0l0.1,0.1c0.2,0.1,0.4,0.1,0.6,0.2c0.9,0.2,1.8,0.1,2.8-0.2
		c0.9-0.3,1.9-0.9,2.6-1.6c0.2-0.2,0.3-0.3,0.5-0.6l0.1-0.2c0,0,0.1-0.1,0.1-0.1c0.1-0.1,0.2-0.2,0.2-0.3c0.3-0.5,0.6-0.9,0.8-1.5
		C179.6,68.5,179.8,66.1,179.5,63.7z"/>
</g>
<g id="XMLID_8_">
	<path id="XMLID_51_" class="st0" d="M165.6,53c0.5-0.1,1-0.3,1.4-0.5c0.4-0.2,0.8-0.5,1.2-0.7c0.7-0.6,1.3-1.2,1.8-2
		c0.5-0.7,0.9-1.5,1.3-2.3c0.2-0.4,0.3-0.8,0.5-1.2c0.2-0.5,0.3-0.8,0.4-1.2c0.6-1.7,0.9-3.4,1.1-5.1c0.2-1.7,0.2-3.4,0-5.1L178,37
		c-0.3,0.3-0.6,0.5-1,0.7l-0.9,0.8l-0.9,0.9c-0.3,0.3-0.5,0.6-0.8,1l-0.7,1c-0.2,0.4-0.4,0.7-0.7,1.1l-0.6,1.2l-0.5,1.2
		c-0.1,0.4-0.3,0.8-0.4,1.3c-0.1,0.4-0.2,0.9-0.4,1.3l-0.3,1.3l-0.2,1.4l-0.1,1.4c0,0.5,0,1,0,1.5l0.1,1.5c0.1,0.5,0.1,1,0.2,1.5
		c-0.4-0.4-0.7-0.8-1.1-1.2l-0.9-1.4c-0.3-0.5-0.5-1-0.7-1.5l-0.5-1.6l-0.3-1.6l-0.2-1.7c0-0.6,0-1.1,0-1.7c0-0.6,0.1-1.1,0.2-1.7
		l0.3-1.7l0.5-1.7c0.2-0.5,0.4-1.1,0.7-1.6l0.8-1.5c0.3-0.5,0.7-1,1-1.5l1.1-1.4l1.3-1.2c0.5-0.4,0.9-0.7,1.4-1.1
		c1.3-1,3.2-0.7,4.1,0.7c0.3,0.5,0.5,1,0.5,1.5l0,0c0,0.6,0.1,1.1,0.1,1.7c0,0.6,0,1.1,0,1.7c-0.1,1.1-0.2,2.2-0.5,3.3
		c-0.3,1.1-0.6,2.1-1,3.2c-0.2,0.5-0.4,1-0.7,1.5c-0.3,0.5-0.5,1-0.8,1.4c-0.3,0.5-0.6,1-0.9,1.4L175,49c-0.2,0.2-0.4,0.4-0.5,0.6
		c-0.7,0.8-1.6,1.6-2.5,2.2c-0.9,0.6-2,1.1-3.1,1.3c-0.6,0.1-1.1,0.2-1.7,0.1C166.6,53.3,166.1,53.2,165.6,53z"/>
</g>
<g id="XMLID_9_">
	<path id="XMLID_49_" class="st0" d="M148.6,102c0.2-0.5,0.4-1,0.6-1.4c0.2-0.5,0.5-0.9,0.7-1.3l-0.1,2.2c0,0.1,0.1,0.2,0.2,0.3
		c0.1,0.1,0.2,0.1,0.3,0.2c0.1,0,0.1,0.1,0.2,0.1c0,0,0.1,0.1,0.1,0.1c0,0,0.1,0,0.2,0c0.1,0,0.1-0.1,0.2-0.2c0-0.1,0.1-0.2,0.1-0.2
		c0-0.1,0-0.2,0-0.3c0-0.3-0.1-0.5-0.2-0.7l-1.9-0.9c0.7-0.1,1.4-0.3,2.2-0.3l-2.8,2.8c-0.1-1.2-0.2-2.3-0.1-3.5l2.7,3
		c0.1,0,0.1,0,0.2,0c0.1,0,0.1,0,0.1,0c0,0,0.1,0,0.1-0.1c0,0,0,0,0.1-0.1c0,0,0-0.1,0-0.1c0,0-0.1,0-0.1,0c0,0-0.1,0-0.2,0
		c0,0-0.1,0-0.2,0c-0.1,0-0.1,0-0.2,0c0,0-0.1,0-0.1,0c0,0-0.1,0-0.1,0l-2.2-0.8c0.3,0,0.6,0.1,0.8,0.1c0.2,0,0.3,0.2,0.4,0.3l0,0
		l0,0l0,0l0,0c0,0.1,0-0.1,0,0.1l0,0l0,0l0,0c0,0,0.1-0.1,0.1-0.1c0,0.1,0,0.2,0.1,0.2c0,0,0.1,0,0.1,0c0.1,0,0.2-0.1,0.2-0.3
		c0-0.1-0.1-0.3-0.1-0.4c0-0.1-0.1-0.1-0.2-0.1c-0.1,0-0.2,0-0.3,0.1c0-0.1-0.1-0.3,0-0.4c0.1-0.1,0.2-0.3,0.4-0.3
		c0.3-0.1,0.6-0.1,0.9,0c0.3,0.1,0.6,0.2,0.9,0.6c0.1,0.1,0.1,0.2,0.2,0.3c0.1,0.1,0.1,0.3,0.1,0.5c0,0.2,0,0.1,0,0.2l0,0.4
		c-0.1,0.4-0.2,0.8-0.4,1.1c-0.2,0.3-0.5,0.6-0.7,0.8c-0.5,0.4-0.9,0.7-1.4,0.9c-0.6,0.3-1.4,0.2-1.8-0.3l-0.4-0.5
		c-0.2-0.2-0.3-0.4-0.5-0.6c-0.1-0.2-0.3-0.4-0.4-0.7c-0.2-0.5-0.3-1-0.4-1.4c0-0.5,0-0.9,0.1-1.4c0.1-0.4,0.2-0.9,0.4-1.3
		c0.2-0.4,0.4-0.8,0.7-1.2c0.3-0.4,0.7-0.7,1.1-1c0.4-0.3,0.9-0.5,1.5-0.7c0.6-0.2,1.2-0.2,1.8-0.2c1.5,0.1,2.6,1.3,2.7,2.8l0,0.2
		c0,1.2,0,2.3-0.2,3.5l-0.1,0.7c-0.2,1.4-1.4,2.3-2.8,2.2c-0.7-0.1-1.4-0.2-2.2-0.3l-0.8-0.2c-0.5-0.1-0.9-0.4-1.1-0.7
		c-0.3-0.4-0.5-0.9-0.6-1.5c0-0.3,0-0.5,0-0.8c0-0.2,0.1-0.5,0.1-0.7c0.1-0.4,0.3-0.7,0.5-1c0.2-0.3,0.5-0.5,0.7-0.7
		c0.3-0.2,0.5-0.3,0.8-0.5c0.3-0.1,0.6-0.2,1-0.2c0.4,0,0.8,0,1.2,0.2c0.4,0.2,0.7,0.4,0.9,0.7l0.5,0.6c0.4,0.4,0.3,1.1-0.1,1.5
		c-0.1,0.1-0.3,0.2-0.4,0.2c-0.5,0.1-1,0.2-1.5,0.3C149.6,101.9,149.1,102,148.6,102z"/>
</g>
<g id="XMLID_10_">
	<path id="XMLID_44_" class="st0" d="M126.5,58.3c-1.8,0.5-3.6,0.8-5.3,1.2c-0.9,0.2-1.8,0.3-2.7,0.5l-2.7,0.5
		c-3.6,0.6-7.1,1.1-10.7,1.6l0-4.7c1.7,0,3.5,0,5.2,0c1.7,0,3.5,0,5.2,0.1c1.7,0,3.5,0.1,5.2,0.1l5.2,0.2c1.7,0.1,2.9,1.6,2.9,3.3
		c-0.1,1.6-1.4,3-3,3h0c-3.4,0-6.9-0.2-10.3-0.3c-3.4-0.1-6.9-0.3-10.3-0.5l-0.3-0.1c-1.3-0.1-2.3-1.2-2.2-2.6
		c0.1-1.3,1.2-2.3,2.4-2.3c3.2,0,6.4,0.1,9.7,0.3c1.6,0.1,3.2,0.2,4.8,0.3c1.6,0.1,3.2,0.3,4.8,0.4l0,1c-0.9-0.3-1.9-0.5-2.8-0.8
		c1-0.1,1.9-0.1,2.9-0.2c0.3,0,0.5,0.2,0.5,0.4c0,0.2-0.2,0.4-0.4,0.5l-0.1,0c-1.6,0.3-3.2,0.6-4.8,0.9c-1.6,0.3-3.2,0.5-4.8,0.8
		c-3.2,0.5-6.4,0.9-9.6,1.2l-0.1-4.8c3.4-0.2,6.9-0.3,10.3-0.4c3.4-0.1,6.9-0.1,10.3-0.1l-0.1,6l-5.2-0.3c-1.7-0.1-3.5-0.2-5.2-0.4
		c-1.7-0.1-3.5-0.3-5.2-0.4c-1.7-0.2-3.5-0.3-5.2-0.5l-0.3,0c-1.3-0.1-2.2-1.3-2.1-2.6c0.1-1.2,1.2-2.1,2.3-2.1
		c3.6,0,7.2,0,10.8,0.2l2.7,0.1c0.9,0,1.8,0.1,2.7,0.2C122.9,58,124.7,58.1,126.5,58.3z"/>
</g>
<g id="XMLID_11_">
	<path id="XMLID_28_" class="st0" d="M62.6,69.1c0-0.7,0.1-1.4,0.1-2.2c0-0.2,0.2-0.4,0.5-0.4c0.2,0,0.3,0.1,0.4,0.2l0.1,0.2
		c0.7,1.2,0.9,2.9,0.5,4.3c-0.4,1.4-1.1,2.7-2,3.8c-0.4,0.6-0.9,1.1-1.5,1.6c-0.5,0.5-1.1,0.9-1.8,1.4c-0.3,0.2-0.7,0.4-1.1,0.6
		c-0.2,0.1-0.4,0.2-0.7,0.2l-0.4,0.1l-0.2,0l-0.1,0l0,0c0.1,0-0.2,0-0.2,0l0,0L55.7,79c0,0-0.2,0-0.4,0l-0.5,0
		c-0.3,0-0.6-0.1-0.8-0.1c-0.3-0.1-0.5-0.1-0.7-0.2c-1-0.3-1.8-0.9-2.5-1.5c-0.7-0.6-1.2-1.3-1.7-2.1c-0.9-1.5-1.4-3.2-1.3-5.1
		c0-0.7,0.2-1.7,0.3-2.4c0.2-0.8,0.4-1.5,0.7-2.2c0.6-1.4,1.2-2.6,1.8-3.7l0.9-1.6l0.9-1.6l0.8-1.5l0.7-1.6c0.5-1.1,0.9-2.2,1.3-3.3
		c0.4-1.1,0.8-2.2,1.2-3.4c0.4-1.1,0.7-2.3,1-3.5c0.3-1.2,0.6-2.4,0.8-3.6c0.2-1.2,0.4-2.4,0.6-3.7l0.5-3.8c0.2,0.6,0.4,1.2,0.6,1.8
		c0.2,0.6,0.3,1.2,0.5,1.9c0.3,1.3,0.5,2.6,0.6,3.9c0.1,1.3,0.2,2.6,0.2,3.9c0,0.7,0,1.3-0.1,2c0,0.7-0.1,1.3-0.2,2
		c-0.2,1.3-0.4,2.6-0.7,3.9c-0.3,1.3-0.7,2.6-1.1,3.8c-0.2,0.6-0.5,1.3-0.7,1.9l-0.8,1.9l-0.4,0.8L56.9,63L56,64.6
		c-0.6,1.1-1.2,2.1-1.6,3c-0.2,0.5-0.4,0.9-0.5,1.4c-0.1,0.5-0.2,0.7-0.3,1.3c-0.1,0.6,0,1.5,0.3,2.2c0.3,0.7,0.8,1.3,1.2,1.5
		c0.1,0,0.1,0.1,0.2,0.1c0.1,0,0.1,0.1,0.1,0.1l0,0c0,0,0-0.1,0.1-0.1L56,74h0c0,0-0.3,0-0.2,0h0l0,0.2l0.1,0.1l0.1,0
		c0.1,0,0.2,0,0.2,0c0.2,0,0.4-0.1,0.6-0.1c0.4-0.2,0.9-0.4,1.4-0.7c0.5-0.3,0.9-0.6,1.4-0.9c0.9-0.6,1.7-1.4,2.3-2.3
		c0.6-0.9,0.9-1.9,0.8-3.1l0.9,0C63.3,67.9,63,68.5,62.6,69.1z"/>
</g>
<g id="XMLID_12_">
	<path id="XMLID_26_" class="st0" d="M72.9,35.5c-0.2,0.4-0.4,0.7-0.5,1c-0.2,0.3-0.3,0.7-0.4,1c-0.2,0.6-0.3,1.2-0.3,1.8l-0.4-1.8
		c0.1-0.1,0.1-0.2,0.2-0.3c0.1-0.1,0.1-0.2,0-0.3c-0.1,0-0.1,0-0.2,0.1c0,0-0.1,0-0.1,0.1l-0.1,0L71,37v0c0,0-0.1,0.3,0,0.2l0,0l0,0
		l0-0.1c0.1-0.2-0.1,0-0.1,0.2c-0.1,0.2-0.1,0.3-0.1,0.4c0,0.1,0,0.3,0.3,0.4c0.1,0,0.1,0.1,0.2,0.1l0.1,0l0,0h0c-0.2,0,0.3,0,0.2,0
		h0h0l0,0l-0.2,0c0.5,0,0.5,0,0.6-0.1c0.2-0.1,0.3-0.2,0.4-0.3c0-0.1,0.1-0.2,0.1-0.3c0-0.1,0-0.3,0-0.5l-2.2-2.1
		c0.4,0.1,0.6,0.2,0.7,0.2c0.1,0,0.1,0-0.1,0.1l0,0l0,0V35l-0.2,0h0l0,0l0,0h0.1c0,0-0.1,0.1-0.2,0.2c-0.1,0.1-0.1,0.1-0.2,0.2
		c-0.1,0.1-0.1,0.2-0.2,0.4c0,0.1-0.1,0.4-0.1,0.6c0,0.3,0.2,0.7,0.4,0.9l2.8,1c0,0,0.1-0.1,0.1-0.1c0,0,0-0.1,0-0.1
		c-0.1,0-0.2,0-0.3,0c-0.1,0.1-0.2,0.1-0.3,0.2c-0.1,0.1-0.2,0.2-0.2,0.3L72,38.2c-0.1,0-0.1,0.1-0.1,0.1c0,0,0,0.1,0,0.1
		c0,0,0.1,0.1,0.2,0.1c0.1,0,0.2,0,0.3,0c0.2,0,0.4-0.2,0.6-0.4c0.1-0.1,0.2-0.2,0.2-0.3c0-0.1,0.1-0.3,0.1-0.5
		c0.2,0.1,0.3,0.2,0.4,0.4c0.1,0.2,0.2,0.4,0.2,0.6c0.1,0.4,0,0.9-0.2,1.3c-0.2,0.4-0.5,0.8-1.1,1.1c-0.3,0.1-0.6,0.2-0.9,0.3
		c-0.4,0-0.7,0-1.1-0.1c-0.1,0-0.2-0.1-0.3-0.2l-0.3-0.3c-0.2-0.3-0.4-0.5-0.6-0.8c-0.2-0.3-0.3-0.6-0.3-1c-0.1-0.7-0.1-1.3,0-2
		c0.2-0.6,0.4-1.3,0.9-1.9c0.5-0.6,1.1-1.1,1.9-1.4c1-0.3,2,0,2.6,0.7l0.2,0.2c0.5,0.6,0.7,1.4,0.7,2c0,0.7-0.1,1.3-0.3,1.8
		c-0.2,0.5-0.5,0.9-0.9,1.3c-0.2,0.2-0.4,0.4-0.6,0.5c-0.1,0.1-0.4,0.2-0.5,0.3l-0.1,0l0,0l0,0l-0.2,0.1c-0.9,0.4-1.8,0.4-2.4,0.4
		c-0.7,0-1.2-0.1-1.6-0.2c-1.1-0.3-1.9-1.1-2.2-2.1l0,0c-0.3-1.3-0.1-2.6,0.4-3.6c0.5-1,1.3-1.7,2.4-2.2c0.6-0.2,1.1-0.4,2-0.4
		l0.2,0l0,0l0.2,0l0.1,0l0.2,0c0.3,0.1,0.6,0.2,0.9,0.3c1.2,0.5,1.9,1.3,2.4,2.2c0.5,0.9,0.7,2,0.5,3.1c-0.1,0.4-0.2,0.8-0.3,0.8
		l0,0.1l0,0l0,0L75.7,39l0,0l0,0l-0.1,0.1c-0.1,0.1-0.2,0.3-0.2,0.4c-0.3,0.5-0.8,0.8-1.2,1.1c-0.9,0.5-1.8,0.7-2.7,0.6
		c-0.9-0.1-1.8-0.6-2.4-1.3l-0.4-0.5c-0.3-0.4-0.3-1,0-1.4c0.5-0.8,1.2-1.4,1.9-1.8C71.3,35.8,72.1,35.5,72.9,35.5z"/>
</g>
<g id="XMLID_13_">
	<path id="XMLID_24_" class="st0" d="M28.3,35.8c2,0.2,4.1,0.5,6.1,0.8c2,0.3,4,0.7,6,1c1,0.2,2,0.3,3,0.5c1,0.2,2.1,0.4,3.3,1
		c0.6,0.3,1.2,0.6,1.7,1.1c0.6,0.5,1,1.1,1.4,1.8c0.3,0.7,0.6,1.4,0.6,2.3c0.1,0.8-0.1,1.8-0.6,2.6c-0.4,0.7-1.1,1-1.8,1l-0.2,0
		c-3.7-0.1-7.3-0.2-11-0.4c-3.7-0.2-7.3-0.4-10.9-0.6l-2.7-0.2c-0.9-0.1-1.7-0.1-2.4-0.1c-0.7,0-1.3,0.1-1.9,0.3
		c-0.1,0-0.1,0-0.2,0.1l-0.1,0l0,0l0,0c-0.2,0.1,0.2-0.1,0.2-0.1l-0.1,0l-0.6,0.3c-0.3,0.2-0.3,0.2-0.5,0.4c-0.8,0.7-1.5,1.9-2,3.3
		c-0.5,1.4-0.8,3-0.9,4.7c0,0.4-0.1,0.9-0.1,1.2l-0.1,1.4c-0.1,0.9-0.1,1.8-0.1,2.7c-0.1,1.8-0.1,3.6-0.1,5.3
		c0,3.6,0.1,7.2,0.4,10.8c0.3,3.6,0.7,7.2,1.1,10.8l0.8,5.4l1,5.4c-0.8-1.7-1.6-3.3-2.2-5.1l-1-2.6l-0.9-2.6
		c-0.6-1.8-1.1-3.5-1.6-5.3c-0.5-1.8-0.9-3.6-1.2-5.4c-0.4-1.8-0.7-3.7-0.9-5.5c-0.2-1.8-0.5-3.7-0.6-5.6c-0.1-1.9-0.3-3.7-0.3-5.6
		c0-1,0-1.9,0-2.8l0-1.4c0-0.5,0-1,0.1-1.5c0.1-2,0.4-4,1-6.1c0.7-2,1.7-4.2,3.7-6c0.4-0.4,1.2-0.9,1.7-1.2l0.6-0.3l0.1,0l0.2-0.1
		l0,0l0.1,0l0.2-0.1c0.2-0.1,0.3-0.1,0.5-0.2c1.2-0.4,2.4-0.6,3.5-0.6c1.1,0,2.1,0,3.1,0.1l2.7,0.3c3.6,0.3,7.3,0.7,10.9,1.2
		c3.6,0.4,7.3,0.9,10.9,1.4l-2,1c0,0,0.1-0.1,0.1-0.3c0-0.2,0-0.4-0.1-0.7c-0.1-0.3-0.2-0.5-0.4-0.7c-0.2-0.2-0.5-0.5-0.8-0.7
		c-0.6-0.4-1.5-0.8-2.4-1.1l-2.9-1c-1.9-0.7-3.8-1.4-5.7-2.1C32.1,37.3,30.2,36.6,28.3,35.8z"/>
</g>
</svg>
