<?xml version="1.0" encoding="utf-8"?>
<!-- Generator: Adobe Illustrator 19.0.0, SVG Export Plug-In . SVG Version: 6.00 Build 0)  -->
<svg version="1.1" id="Layer_1" xmlns="http://www.w3.org/2000/svg" xmlns:xlink="http://www.w3.org/1999/xlink" x="0px" y="0px"
	 viewBox="0 0 188.5 133" style="enable-background:new 0 0 188.5 133;" xml:space="preserve">
<style type="text/css">
	.st0{fill:#FFFFFF;}
</style>
<g id="XMLID_7_">
	<g id="XMLID_24_">
		<path id="XMLID_53_" class="st0" d="M175.7,52.7l0.4,1.5l0.3,1.6l0.2,1.6l0,1.6l-0.1,1.6l-0.2,1.6l-0.3,1.6l-0.4,1.6l-0.5,1.6
			l-0.6,1.5l-0.7,1.5l-0.8,1.4l-0.9,1.4l-1,1.3l-1.1,1.3l-1.2,1.2c-0.7,0.7-1.8,0.7-2.5,0c-0.1-0.1-0.2-0.2-0.2-0.3l-0.2-0.2
			c-0.3-0.5-0.6-1-0.9-1.6c-0.3-0.5-0.5-1.1-0.7-1.7c-0.2-0.6-0.4-1.2-0.5-1.8c-0.1-0.6-0.2-1.2-0.3-1.8c-0.2-1.2-0.2-2.5-0.1-3.7
			c0.1-0.6,0.2-1.2,0.3-1.9c0.1-0.6,0.3-1.2,0.5-1.8c0.5-1.4,2-2.1,3.4-1.6c0.9,0.3,1.5,1,1.7,1.8l0,0.2c0.4,1.4,0.6,2.8,0.7,4.3
			c0.1,0.7,0.1,1.4,0.1,2.2l0,1.1l-0.1,1.1c-0.1,1.4-0.4,2.9-0.8,4.2c-0.2,0.7-0.4,1.4-0.7,2.1c-0.3,0.7-0.5,1.3-0.9,2
			c-0.6,1.3-1.4,2.6-2.2,3.8c-0.8,1.2-1.8,2.3-2.9,3.3c-0.5,0.5-1.1,1-1.7,1.5c-0.6,0.4-1.2,0.9-1.9,1.3c-0.7,0.5-1.5,0.9-2.6,1.2
			c-1,0.3-2.4,0.5-3.9,0.2c-1.5-0.3-2.9-1.3-3.7-2.3c-0.8-1-1.2-2-1.6-2.9c-0.1-0.2-0.1-0.4-0.2-0.7l0-0.2l0,0l-0.1-0.2l0-0.1
			l-0.1-0.2l-0.2-0.9c-0.1-0.3-0.1-0.7-0.2-1.2l-0.1-1.3c-0.1-1.6,0-3.2,0.3-4.7c0.2-1.5,0.7-3,1.1-4.4c0.2-0.7,0.5-1.4,0.8-2
			c0.3-0.6,0.6-1.3,0.9-1.9c0.6-1.3,1.3-2.5,2-3.6c0.7-1.2,1.5-2.3,2.2-3.4c0.8-1.1,1.5-2.1,2.3-3.2l6,6.3l-3.7,2.4
			c-1.2,0.7-2.5,1.4-3.8,2.1c-2.6,1.3-5.2,2.5-7.9,3.5c-1.3,0.5-2.7,0.9-4.1,1.4c-1.4,0.5-2.7,0.8-4.1,1.2l-2.1,0.5l-2.1,0.5
			c-1.4,0.3-2.8,0.6-4.2,0.8c-2.8,0.5-5.6,0.9-8.3,1.2c-1.4,0.1-2.8,0.3-4.2,0.4l-4.2,0.3c-2.8,0.1-5.5,0.2-8.3,0.3
			c-2.8,0-5.5,0-8.2,0c-2.8-0.1-5.4-0.1-8.2-0.2l-8.1-0.4c-5.4-0.3-10.9-0.6-16.3-0.9c-5.4-0.3-10.9-0.8-16.3-1.2l-8.1-0.7l-2-0.2
			c-0.7-0.1-1.3-0.1-2.1-0.3c-0.7-0.2-1.4-0.5-1.9-1c-0.3-0.2-0.5-0.5-0.6-0.9c-0.1-0.4,0-0.7,0.2-1c-0.1,0.3-0.2,0.7,0,0.9
			c0.1,0.3,0.4,0.5,0.7,0.7c0.5,0.3,1.2,0.5,1.8,0.6c0.6,0.1,1.3,0,2-0.1l2-0.2l8.2-0.6c5.4-0.3,10.9-0.7,16.3-0.9
			c5.4-0.3,10.9-0.5,16.3-0.7l8.2-0.2c2.6-0.1,5.4-0.2,8.1-0.3c2.7-0.1,5.4-0.2,8.1-0.4c2.7-0.2,5.3-0.4,8-0.6l4-0.4l3.9-0.5
			c2.6-0.4,5.2-0.8,7.8-1.3c1.3-0.2,2.6-0.5,3.8-0.8l1.9-0.4l1.9-0.5c1.2-0.3,2.5-0.7,3.7-1.1c1.2-0.4,2.5-0.8,3.6-1.3
			c2.4-0.9,4.7-1.9,7-3c1.1-0.6,2.3-1.2,3.3-1.8l3.2-2l0.2-0.1c2.1-1.3,4.8-0.6,6.1,1.4c1,1.6,0.8,3.6-0.3,5
			c-3,3.9-5.8,7.7-7.4,11.7c-0.4,1-0.7,2-0.9,2.9c-0.2,1-0.3,1.9-0.3,2.9c0,0.2,0,0.4,0,0.6c0,0.2,0,0.3,0.1,0.7l0.2,0.9l0,0.2
			l0,0.1l0,0c0-0.1,0,0.2,0-0.2l0,0l0,0.1l0.1,0.3c0.1,0.3,0.2,0.5,0.2,0.5c0,0-0.3-0.2-0.6-0.3c-0.3,0-0.3,0-0.1,0
			c0.2,0,0.5-0.2,0.9-0.3c0.4-0.2,0.9-0.5,1.3-0.8c0.4-0.3,0.8-0.6,1.2-0.9c0.8-0.7,1.6-1.4,2.2-2.2c0.7-0.8,1.3-1.7,1.8-2.6
			c0.3-0.5,0.5-0.9,0.8-1.4c0.2-0.5,0.4-1,0.6-1.5c0.4-1,0.7-2.1,0.9-3.1l0.2-0.8l0.1-0.8c0.1-0.5,0.1-1.1,0.1-1.6
			c0-1.1-0.1-2.2-0.2-3.2l5.1,0.4c-0.2,0.4-0.3,0.8-0.5,1.2c-0.1,0.4-0.2,0.8-0.3,1.3c-0.2,0.9-0.3,1.7-0.3,2.6c0,0.4,0,0.9,0.1,1.3
			c0.1,0.4,0.1,0.9,0.2,1.3c0.1,0.4,0.2,0.9,0.4,1.3c0.2,0.4,0.3,0.8,0.5,1.3l-2.9-0.5l1.1-0.9l1.1-0.9l1-1l0.9-1.1l0.9-1.2l0.8-1.2
			l0.7-1.3l0.7-1.3l0.6-1.4l0.5-1.4l0.4-1.5l0.3-1.5l0.2-1.5l0.1-1.5l0-1.5L175.7,52.7z"/>
	</g>
	<g id="XMLID_25_">
		<path id="XMLID_51_" class="st0" d="M157.5,29.8c0,0,0.2-0.2,0.7-0.5c0.5-0.3,1.1-0.8,1.9-1.4c1.6-1.2,3.9-2.9,6.5-5
			c1.3-1.1,2.6-2.2,4-3.5c0.7-0.6,1.4-1.3,2.1-2c0.7-0.7,1.4-1.4,2-2c0.5-0.6,0.9-1.2,1-1.6c0-0.1,0-0.1,0-0.1l0,0
			c0,0-0.1,0.2,0,0.1l0,0l0-0.1c0-0.1,0.1-0.2,0.1-0.2c-0.1,0.1,0,0-0.1,0c0-0.1,0-0.2-0.1-0.2c0,0,0,0.1,0.1,0.2
			c0.1,0.2,0.3,0.3,0.3,0.4c0.1,0-0.5-0.1-1.3-0.1c-0.3,0-0.6,0-0.8,0c-0.1,0-0.3,0-0.4,0.1l-0.2,0l-0.3,0.1l-0.6,0.1
			c-0.7,0.2-1.5,0.4-2.3,0.8c-1.5,0.7-2.9,1.6-4,2.8c-1.1,1.1-2,2.4-2.6,3.8c-0.2,0.3-0.3,0.7-0.4,1c-0.1,0.2-0.1,0.3-0.2,0.5
			l-0.1,0.5c-0.2,0.6-0.2,1.1-0.2,1.6l0,0.1c0,0-0.1-0.3-0.1-0.1l0,0l0,0l0,0.1l0.1,0.3c0.1,0.3,0.1,0.2,0.1,0.3
			c0,0.1,0,0.2,0.1,0.3c0,0.1,0.1,0.2,0.2,0.3c0.3,0.4,0.7,0.8,1.1,1.1c0.9,0.7,2,1.1,3,1.5c0.9,0.3,1.7,0.6,2.2,0.7
			c0.5,0.2,0.8,0.2,0.8,0.2s-0.3,0.1-0.8,0.3c-0.5,0.1-1.3,0.4-2.4,0.5c-1.1,0.1-2.4,0.3-4.1,0c-0.8-0.2-1.7-0.5-2.7-1.1
			c-0.2-0.1-0.5-0.3-0.7-0.5c-0.2-0.2-0.4-0.4-0.7-0.7c-0.2-0.3-0.5-0.6-0.6-0.7l-0.2-0.3l0-0.1l0,0l0,0c0.1,0.1-0.1-0.2-0.1-0.2
			l-0.1-0.2c-0.6-1.2-0.9-2.5-1-3.7c0-0.3,0-0.6,0-0.9c0-0.2,0-0.6,0-0.9c0-0.6,0.1-1.2,0.2-1.8c0.4-2.4,1.4-4.9,2.9-7.1
			c0.4-0.6,0.8-1.1,1.3-1.6c0.5-0.5,0.9-1,1.5-1.5c1-0.9,2.2-1.8,3.4-2.5c1.2-0.7,2.6-1.3,4.1-1.7l1.1-0.2l0.6-0.1l0.6-0.1l1.3-0.1
			c0.4,0,0.6,0,0.9,0l0.4,0l0.2,0l0.3,0l0.1,0l0.1,0c0.4,0,0.8,0.1,1.3,0.2c0.9,0.2,1.9,0.4,2.9,1c1.1,0.5,2.2,1.5,2.9,2.6
			c0.7,1.1,1.1,2.3,1.3,3.4c0.2,1.1,0.1,2.1-0.1,3.1c-0.1,0.5-0.2,0.9-0.5,1.6l-0.2,0.6c-0.1,0.2-0.2,0.4-0.3,0.6
			c-0.9,1.6-2,2.7-3,3.5c-1,0.9-1.9,1.5-2.8,2.1c-0.9,0.6-1.8,1.2-2.8,1.7c-1.8,1-3.6,1.8-5.3,2.5c-3.4,1.3-6.3,1.9-8.4,2.2
			c-1,0.1-1.9,0.2-2.4,0.2C157.8,29.8,157.5,29.8,157.5,29.8z"/>
	</g>
	<g id="XMLID_26_">
		<path id="XMLID_49_" class="st0" d="M147.9,122c-0.1-0.2-0.1-0.4-0.2-0.6c-0.1-0.2-0.1-0.4-0.1-0.5c-0.1-0.3-0.1-0.7-0.1-1
			c-0.1-0.7-0.1-1.3,0-1.8c0.1-0.9,0.9-1.5,1.7-1.4c0.6,0.1,1.1,0.4,1.3,0.9l1.7,3.6l0.2,0.4c0,0.1,0.1,0.2,0.2,0.3
			c0.1,0.2,0.2,0.4,0.3,0.5l0.5,0.7l-2.9-3.8c0.5,0.1,0.8,0.1,0.8,0.1c0.1,0-0.2,0-0.5,0.2l0,0l0,0l0,0.2l-0.2,0.3h0l0-0.2l0-0.1
			l0.1-0.1l0,0l-0.1,0l-0.1,0c-0.1,0-0.1,0.1-0.2,0.1c-0.2,0.1-0.2,0.2-0.3,0.3c-0.2,0.2-0.3,0.4-0.3,0.7c-0.1,0.3-0.1,0.6-0.1,1.1
			c0.1,0.4,0.3,1,0.6,1.3l2.1,1.6c-0.1-0.2-0.2-0.4-0.3-0.6c-0.1-0.1-0.1-0.2-0.2-0.3l-0.3-0.4c-0.2-0.2-0.5-0.5-0.8-0.8
			c-0.2-0.1-0.3-0.2-0.5-0.4c-0.2-0.1-0.4-0.3-0.6-0.4c0-0.3,0.1-0.5,0.2-0.7c0.1-0.2,0.2-0.4,0.3-0.7c0.3-0.4,0.6-0.8,1-1.1
			c0.4-0.3,0.8-0.5,1.3-0.7c0.5-0.2,1-0.3,1.5-0.4c0.5,0,1,0.2,1.3,0.6l0.8,1c0.3,0.4,0.5,0.8,0.7,1.3c0.2,0.5,0.2,1,0.2,1.4
			c0,0.9-0.2,1.8-0.6,2.4c-0.3,0.7-0.8,1.3-1.4,1.8c-0.3,0.3-0.6,0.5-1,0.7l-0.4,0.2l-0.2,0.1l-0.1,0l0,0l-0.1,0l0,0l0,0l-0.3,0.1
			c-0.7,0.2-1.3,0.3-1.9,0.3c-0.6,0-1.1-0.1-1.6-0.2c-0.9-0.2-1.6-0.5-2-0.8l-1-0.6c-1.2-0.7-1.9-2-1.8-3.2c0.1-2,1.1-3.9,2.6-5.1
			l4.7,3.1c-0.5,0.2-1.1,0.3-1.8,0.4c-0.3,0-0.7,0.1-1,0.1c-0.2,0-0.4,0-0.6,0C148.3,122.1,148.1,122.1,147.9,122z"/>
	</g>
	<g id="XMLID_27_">
		<path id="XMLID_20_" class="st0" d="M127.4,50.7c-1.1,0.5-2.2,1-3.4,1.4c-1.1,0.5-2.2,0.9-3.2,1.2c-1.1,0.4-2.2,0.8-3.2,1.2
			c-1.1,0.4-2.1,0.7-3.2,1.1c-1.1,0.3-2.1,0.7-3.2,1c-1.1,0.4-2.1,0.7-3.2,1c-1.1,0.3-2.2,0.6-3.3,0.9c-1.1,0.3-2.2,0.6-3.3,0.8
			c-1.1,0.3-2.2,0.5-3.3,0.8c-1.1,0.3-2.2,0.4-3.4,0.7c-1.1,0.2-2.3,0.4-3.4,0.6c-1.2,0.1-2.3,0.3-3.5,0.4c-1.2,0.1-2.3,0.2-3.5,0.2
			c-1.2,0-2.4,0-3.5,0c-1.2,0-2.4-0.1-3.6-0.2c-1.2-0.1-2.4-0.3-3.6-0.6l-0.4-0.1c-0.3-0.1-0.5-0.4-0.4-0.7c0.1-0.3,0.3-0.4,0.5-0.5
			c0.6,0,1.1-0.1,1.7-0.1c-0.4,0.4-0.8,0.8-1.2,1.2L73.4,60c1.1-0.6,2.1-1.1,3.2-1.5c1.1-0.5,2.1-1,3.2-1.4c1.1-0.5,2.1-0.9,3.2-1.3
			c1.1-0.4,2.1-0.8,3.2-1.2c1.1-0.4,2.1-0.7,3.2-1.1c1.1-0.3,2.2-0.7,3.3-1c1.1-0.3,2.2-0.7,3.3-0.9c1.1-0.3,2.2-0.6,3.3-0.8
			c1.1-0.2,2.3-0.5,3.4-0.7c1.1-0.2,2.3-0.4,3.4-0.6c1.2-0.2,2.3-0.3,3.5-0.4c1.2-0.1,2.4-0.1,3.5-0.2c1.2,0,2.4,0,3.6,0
			c1.2,0.1,2.4,0.2,3.6,0.3c1.2,0.2,2.4,0.4,3.6,0.6C125,50,126.2,50.3,127.4,50.7z"/>
	</g>
	<g id="XMLID_28_">
		<path id="XMLID_18_" class="st0" d="M43.1,55.2c0.3,0.8,0.4,1.6,0.6,2.5c0.1,0.8,0.2,1.7,0.2,2.5l-0.1,1.3l-0.2,1.3
			c-0.1,0.9-0.3,1.7-0.5,2.6c-0.2,0.8-0.5,1.7-0.9,2.5c-0.3,0.8-0.8,1.6-1.2,2.4c-0.4,0.8-1,1.5-1.5,2.3c-0.3,0.4-0.6,0.7-0.9,1.1
			l-0.9,1c-1.4,1.5-3.7,1.6-5.2,0.2c-0.4-0.3-0.7-0.7-0.9-1.2L31.4,73c-0.2-0.5-0.4-1-0.6-1.4c-0.2-0.5-0.4-1-0.5-1.5
			c-0.3-1-0.6-2-0.7-3c-0.2-1-0.3-2-0.3-3c0-1,0-2,0-3c0-1,0.2-1.9,0.3-2.9c0.2-0.9,0.3-1.9,0.5-2.8c0.2-0.9,0.4-1.8,0.7-2.7
			c0.1-0.4,0.3-0.9,0.4-1.3l0.4-1.3c0.3-0.9,0.6-1.7,0.9-2.5c0.3-0.8,0.6-1.6,1-2.4c0.6-1.6,1.3-3.1,2-4.7c0.3-0.8,0.7-1.5,1-2.3
			c0.3-0.8,0.6-1.6,0.9-2.4c0.3-0.8,0.6-1.7,0.8-2.2c0-0.1,0.1-0.3,0-0.4c0,0,0-0.1,0,0l0-0.1c0-0.1,0,0,0-0.1
			c0-0.1-0.1-0.1-0.1-0.2c-0.2-0.2-0.6-0.4-1-0.1c0-0.2,0.2-0.5,0.4-0.6c0.2-0.1,0.5-0.2,0.9-0.2c0.2,0,0.3,0,0.5,0.1
			c0.1,0,0.2,0.1,0.3,0.1l0.1,0c0.1,0.1,0.1,0.1,0.1,0.1c0.3,0.2,0.4,0.5,0.6,0.8c0.3,0.6,0.4,1.1,0.5,1.6c0.1,0.5,0.2,0.9,0.3,1.4
			c0.2,0.9,0.2,1.9,0.3,2.8c0,0.9,0.1,1.9,0,2.8c-0.1,1.8-0.2,3.7-0.5,5.4c-0.1,0.9-0.2,1.8-0.4,2.6c-0.1,0.8-0.3,1.7-0.4,2.5
			l-0.4,2.5c-0.2,0.8-0.3,1.6-0.4,2.4c-0.1,0.8-0.2,1.6-0.3,2.3l-0.2,2.3c-0.1,0.7-0.1,1.5-0.1,2.2c0,0.7,0,1.4,0,2.2
			c0,0.7,0.1,1.4,0.2,2.1c0.1,0.7,0.2,1.4,0.4,2l-6.3-1.5c0.5-0.4,1-0.8,1.6-1.2l0.8-0.6c0.2-0.2,0.5-0.5,0.7-0.7l0.7-0.7
			c0.2-0.2,0.5-0.5,0.7-0.7l0.7-0.8c0.2-0.3,0.4-0.5,0.7-0.8c0.4-0.6,0.9-1.1,1.3-1.7c0.4-0.6,0.8-1.2,1.2-1.9
			c0.2-0.3,0.4-0.7,0.6-1l0.6-1c0.2-0.3,0.4-0.7,0.5-1.1C42.7,55.9,42.9,55.5,43.1,55.2z"/>
	</g>
	<g id="XMLID_29_">
		<path id="XMLID_16_" class="st0" d="M63.5,23.2c-0.2-0.1-0.4-0.2-0.6-0.4c-0.2-0.1-0.4-0.2-0.6-0.4c-0.4-0.3-0.7-0.5-1.1-0.8
			l2.9,0.5c0,0.2,0.1,0.5,0.1,0.7c0.1,0.2,0.1,0.4,0.2,0.6c0.1,0.2,0.1,0.3,0.2,0.5l0.2,0.4c0.1,0.1,0.2,0.2,0.3,0.3
			c0.1,0.1,0.2,0.2,0.3,0.3c0.2,0.1,0.3,0.2,0.5,0.3l-3.1-2.4c-0.4-0.1-0.9-0.1-1.3,0c-0.4,0.1-0.7,0.3-0.9,0.4
			c-0.2,0.2-0.3,0.3-0.4,0.5c-0.1,0.2-0.2,0.4-0.2,0.6c0,0.2,0,0.6,0.1,1l0.1,0.1l0,0.1l0.2,0.3l-0.1-0.2c-0.1-0.1,0,0.1,0.1,0.2
			c0.1,0.1,0.2,0.2,0.2,0.2c0.3,0.3,0.6,0.3,0.8,0.3c0.1-0.1,0-0.2,0-0.4c0,0-0.2-0.1-0.2-0.1v0v0v0v0c0,0,0.4-0.1,0.3-0.1l0.1,0
			l-0.1,0l-0.1,0c0,0-0.1,0,0,0c0,0,0-0.1,0-0.1c0,0,0,0-0.1,0c-0.1,0-0.1-0.1-0.2-0.1c-0.3-0.1-0.7,0-1.1,0.1
			c-0.5,0.1-1,0.4-1.5,0.7l-1-2c0.2,0.3,0.5,0.6,0.7,0.9c0.1,0.1,0.2,0.3,0.3,0.5c0.1,0.2,0.2,0.3,0.3,0.5c-0.2,0.1-0.4,0.2-0.5,0.3
			c-0.2,0.1-0.4,0.2-0.5,0.2c-0.3,0.1-0.7,0.3-1,0.4c-0.3,0.1-0.6,0-0.7-0.3c0,0,0-0.1,0-0.1l-0.2-1.5c-0.1-0.8-0.1-1.6,0.1-2.4
			c0.2-0.8,0.6-1.7,1.3-2.4c0.2-0.2,0.3-0.4,0.5-0.6c0.1-0.1,0.2-0.2,0.3-0.3l0.4-0.3c0.1-0.1,0.1-0.1,0.1-0.1l0.1-0.1l0.1-0.1l0,0
			l0.1-0.1l0,0l0.1,0l0.1-0.1c0.3-0.2,0.6-0.3,0.9-0.4c1.2-0.4,2.4-0.5,3.7-0.3c1.3,0.2,2.6,0.9,3.7,2.1c0.1,0.1,0.3,0.4,0.5,0.6
			c0.1,0.2,0.4,0.5,0.3,0.5l0.1,0.2l0.2,0.3l0,0.1l0.1,0.2l0.1,0.3c0.3,0.9,0.4,1.9,0.3,2.7c-0.1,0.8-0.3,1.6-0.6,2.3
			c-0.3,0.7-0.8,1.3-1.4,1.9c-0.6,0.6-1.4,1.1-2.3,1.4c-1,0.3-2.1,0.4-3.1,0.2l-0.6-0.1c-1.2-0.3-2.1-1.2-2.5-2.3
			c-0.5-1.8-0.4-3.6,0.2-5.1c0.1-0.4,0.3-0.7,0.5-1.1c0.2-0.3,0.4-0.7,0.7-0.9c0.5-0.6,1.1-1.1,1.8-1.4l1.4-0.7
			c0.5-0.2,1.2,0,1.4,0.5c0.1,0.2,0.1,0.5,0.1,0.7c-0.1,0.4-0.2,0.8-0.4,1.3c-0.1,0.2-0.1,0.4-0.2,0.6C63.7,22.8,63.6,23,63.5,23.2z
			"/>
	</g>
	<g id="XMLID_44_">
		<path id="XMLID_54_" class="st0" d="M10.9,24.4c0,0,0-0.2,0.1-0.5c0.1-0.3,0.1-0.8,0.4-1.4c0.4-1.3,1.4-3.1,3.2-4.8
			c1.8-1.8,4.5-3.5,7.7-4.8c1.6-0.7,3.3-1.3,5.2-1.9c1.8-0.6,3.9-1.1,6.2-1.4c1.2-0.1,2.4-0.2,3.7,0c1.3,0.2,2.8,0.6,4.2,1.5
			c1.4,0.9,2.6,2.2,3.3,3.8c0.8,1.8,0.9,3.5,0.7,5.2c-0.2,1.7-0.8,3.2-1.7,4.7c-0.4,0.7-0.9,1.4-1.5,2c-0.3,0.3-0.6,0.6-0.9,0.9
			l-0.1,0.1l-0.1,0.1c-0.1,0,0,0-0.2,0.1L41,28.1l-0.4,0.3c-0.8,0.5-1.5,1-2.2,1.3c-0.7,0.4-1.4,0.7-2.2,0.9
			c-1.4,0.5-2.9,0.9-4.3,1.2c-2.8,0.6-5.4,0.7-7.7,1.2c-1.1,0.2-2.2,0.5-3.1,0.9c-0.5,0.2-0.9,0.4-1.3,0.6l-0.3,0.2
			c0,0,0.3-0.2,0.1-0.1l-0.1,0l-0.1,0.1l-0.2,0.1l-0.4,0.3l-0.2,0.1l-0.1,0.1c-0.1,0.1-0.2,0.2-0.4,0.3l-0.5,0.5
			c-0.3,0.4-0.6,0.7-0.9,1.1c-0.6,0.8-1.1,1.7-1.5,2.7c-0.9,2-1.4,4.4-1.8,6.8c-0.1,0.6-0.2,1.2-0.2,1.9l-0.1,1.9l-0.2,2
			c-0.1,0.7-0.1,1.4-0.1,2c0,1.2,0,2.5,0,3.7c0,1.3,0.1,2.6,0.2,3.8c0,0.6,0,1.3,0.1,1.9l0.2,1.9c0.2,1.3,0.2,2.5,0.5,3.8
			c0.2,1.2,0.4,2.5,0.6,3.7c0.2,1.2,0.6,2.4,0.8,3.6c0.1,0.6,0.3,1.2,0.4,1.8c0.2,0.6,0.3,1.2,0.5,1.7c0.3,1.2,0.7,2.3,1,3.4
			c0.8,2.2,1.5,4.4,2.5,6.5c0.4,1,0.9,2.1,1.3,3.1c0.5,1,1,2,1.4,2.9c0.2,0.5,0.5,1,0.7,1.4c0.3,0.5,0.5,0.9,0.8,1.4
			c0.5,0.9,1,1.8,1.5,2.7c1,1.7,2.1,3.3,3.1,4.9c1.1,1.5,2.1,2.9,3,4.2c1,1.3,2,2.4,2.9,3.6c0.9,1.1,1.8,2,2.6,2.9
			c1.6,1.8,3,3.1,3.9,4c0.9,0.9,1.4,1.4,1.4,1.4s-0.6-0.3-1.7-1c-1.1-0.7-2.8-1.6-4.7-3.1c-1-0.7-2.1-1.5-3.2-2.4
			c-1.1-0.9-2.3-2-3.6-3.1c-1.2-1.2-2.5-2.5-3.9-3.8c-1.3-1.4-2.6-3-4-4.6c-0.6-0.9-1.3-1.7-2-2.6c-0.3-0.4-0.7-0.9-1-1.4
			c-0.3-0.5-0.6-0.9-0.9-1.4c-0.6-1-1.3-2-1.9-3c-0.6-1-1.2-2.1-1.8-3.2c-1.3-2.1-2.2-4.5-3.3-6.8c-0.5-1.2-0.9-2.4-1.4-3.7
			c-0.2-0.6-0.5-1.2-0.7-1.9c-0.2-0.6-0.4-1.3-0.6-1.9c-1.7-5.1-2.7-10.6-3.3-16.3c-0.1-1.4-0.3-2.8-0.3-4.3c0-1.5,0-3,0-4.4
			c0-0.8,0-1.4,0.1-2.1l0.1-2l0.1-2.2c0.1-0.7,0.2-1.5,0.3-2.2c0.5-3,1.2-6,2.5-9c0.6-1.5,1.5-3,2.5-4.4c0.5-0.7,1.1-1.4,1.7-2
			l1-0.9c0.4-0.3,0.8-0.6,1.2-0.9L14,28l0.2-0.1l0.4-0.3l0.6-0.4l0.6-0.3c0.8-0.4,1.6-0.8,2.4-1c1.6-0.6,3.2-0.9,4.6-1.1
			c3-0.4,5.6-0.5,7.8-0.8c1.1-0.1,2.2-0.3,3.1-0.6c0.5-0.1,0.9-0.3,1.3-0.5c0.4-0.2,0.8-0.4,1.1-0.5l0.6-0.4
			c0.1-0.1,0.3-0.2,0.4-0.3c0.3-0.2,0.5-0.5,0.8-0.8c0.4-0.6,0.8-1.3,1-1.9c0.2-0.6,0.2-1.3,0.1-1.6c-0.1-0.5-0.4-1-0.9-1.3
			c-0.8-0.8-2.6-1.2-4.3-1.2c-1.8-0.1-3.7,0.2-5.5,0.4c-1.8,0.3-3.5,0.6-5.1,0.9c-3.1,0.7-5.8,1.7-7.7,2.9c-1.9,1.2-3.2,2.6-3.9,3.6
			c-0.4,0.5-0.6,1-0.7,1.3C11,24.2,10.9,24.4,10.9,24.4z"/>
	</g>
</g>
</svg>
