<?xml version="1.0" encoding="utf-8"?>
<!-- Generator: Adobe Illustrator 19.0.0, SVG Export Plug-In . SVG Version: 6.00 Build 0)  -->
<svg version="1.1" id="Layer_1" xmlns="http://www.w3.org/2000/svg" xmlns:xlink="http://www.w3.org/1999/xlink" x="0px" y="0px"
	 viewBox="0 0 188.5 133" style="enable-background:new 0 0 188.5 133;" xml:space="preserve">
<g id="XMLID_24_">
	<path id="XMLID_53_" d="M179.6,55.6l0.4,1.5l0.3,1.6l0.1,1.6l0,1.6l-0.1,1.6l-0.2,1.6l-0.3,1.6l-0.4,1.6l-0.5,1.5l-0.6,1.5
		l-0.7,1.5l-0.8,1.4l-0.9,1.4l-1,1.3l-1.1,1.2l-1.2,1.2c-0.6,0.6-1.7,0.6-2.3,0c-0.1-0.1-0.1-0.2-0.2-0.2l-0.1-0.2
		c-0.3-0.5-0.6-1-0.9-1.6c-0.3-0.5-0.5-1.1-0.7-1.7c-0.2-0.6-0.4-1.2-0.5-1.7c-0.1-0.6-0.2-1.2-0.3-1.8c-0.1-1.2-0.2-2.4,0-3.7
		c0.1-0.6,0.2-1.2,0.3-1.8c0.1-0.6,0.3-1.2,0.5-1.8c0.4-1.2,1.7-1.9,3-1.5c0.8,0.3,1.3,0.9,1.5,1.6l0,0.2c0.4,1.4,0.6,2.8,0.7,4.2
		c0,0.7,0.1,1.4,0.1,2.1l0,1.1l-0.1,1.1c-0.1,1.4-0.4,2.8-0.8,4.2c-0.2,0.7-0.4,1.4-0.7,2c-0.3,0.7-0.5,1.3-0.9,2
		c-0.6,1.3-1.4,2.5-2.2,3.7c-0.8,1.2-1.8,2.3-2.9,3.3c-0.5,0.5-1.1,1-1.7,1.4c-0.6,0.4-1.2,0.9-1.8,1.3c-0.7,0.4-1.5,0.8-2.5,1.2
		c-1,0.3-2.2,0.5-3.6,0.2c-1.4-0.3-2.7-1.2-3.4-2.2c-0.8-1-1.2-1.9-1.5-2.7c-0.1-0.2-0.1-0.4-0.2-0.6l0-0.2l-0.1-0.3l0-0.1l-0.1-0.2
		l-0.2-0.9c-0.1-0.3-0.1-0.7-0.2-1.2l-0.1-1.3c-0.1-1.5,0-3.1,0.3-4.6c0.2-1.5,0.7-2.9,1.1-4.3c0.2-0.7,0.5-1.3,0.8-2
		c0.3-0.6,0.6-1.3,0.9-1.9c0.6-1.2,1.3-2.4,2-3.6c0.7-1.2,1.5-2.3,2.2-3.3c0.8-1.1,1.5-2.1,2.3-3.2l5.3,5.6l-3.6,2.3
		c-1.2,0.7-2.5,1.4-3.8,2.1c-2.6,1.3-5.2,2.5-7.9,3.5c-1.3,0.5-2.7,0.9-4,1.4c-1.3,0.5-2.7,0.8-4.1,1.2l-2.1,0.5l-2.1,0.5
		c-1.4,0.3-2.8,0.6-4.1,0.8c-2.8,0.5-5.5,0.9-8.3,1.2c-1.4,0.1-2.8,0.3-4.2,0.4l-4.2,0.3c-2.8,0.1-5.5,0.2-8.3,0.3
		c-2.8,0-5.5,0-8.2,0c-2.8,0-5.4-0.1-8.2-0.2l-8.1-0.3C78.9,79.4,73.5,79,68,78.8c-5.4-0.3-10.9-0.7-16.3-1l-8.1-0.6l-2-0.2
		c-0.7-0.1-1.3-0.1-2.1-0.3c-0.7-0.2-1.4-0.5-1.9-1c-0.3-0.2-0.5-0.5-0.6-0.9c-0.1-0.4,0-0.7,0.2-1c-0.1,0.3-0.2,0.7,0,0.9
		c0.1,0.3,0.4,0.5,0.7,0.7c0.5,0.3,1.2,0.5,1.8,0.6c0.6,0.1,1.3,0,2-0.1l2-0.1l8.2-0.5c5.4-0.3,10.9-0.6,16.3-0.8
		c5.4-0.2,10.9-0.4,16.3-0.6l8.2-0.2c2.7-0.1,5.4-0.2,8.1-0.3c2.7-0.1,5.4-0.2,8.1-0.4c2.7-0.2,5.3-0.3,8-0.6l4-0.4l3.9-0.5
		c2.6-0.4,5.2-0.7,7.8-1.3c1.3-0.2,2.6-0.5,3.8-0.8l1.9-0.4l1.9-0.5c1.3-0.3,2.5-0.7,3.7-1.1c1.2-0.4,2.5-0.8,3.7-1.3
		c2.4-0.9,4.8-1.9,7.1-3.1c1.1-0.6,2.3-1.2,3.4-1.8l3.3-2l0.2-0.1c1.8-1.1,4.3-0.6,5.4,1.3c0.9,1.4,0.7,3.2-0.2,4.5
		c-3,3.9-5.8,7.8-7.4,11.8c-0.4,1-0.7,2-0.9,3c-0.2,1-0.3,2-0.3,3c0,0.2,0,0.4,0,0.6c0,0.2,0,0.4,0.1,0.7l0.2,0.9l0,0.2l0,0.1l0,0
		c0-0.1,0,0.2,0-0.2l0,0l0,0.1l0.1,0.3c0.1,0.3,0.2,0.6,0.2,0.6c0,0-0.2-0.1-0.3-0.1c-0.2,0-0.2,0,0.1,0c0.2,0,0.6-0.2,1-0.4
		c0.4-0.3,0.9-0.5,1.3-0.8c0.4-0.3,0.9-0.6,1.3-1c0.8-0.7,1.6-1.4,2.3-2.3c0.7-0.8,1.3-1.7,1.9-2.7c0.3-0.5,0.5-1,0.8-1.5
		c0.2-0.5,0.4-1,0.6-1.5c0.4-1,0.7-2.1,0.9-3.2l0.2-0.8l0.1-0.8c0.1-0.6,0.1-1.1,0.1-1.7c0-1.1-0.1-2.2-0.3-3.3l4.5,0.3
		c-0.2,0.4-0.3,0.8-0.5,1.2c-0.1,0.4-0.2,0.9-0.3,1.3c-0.2,0.9-0.3,1.8-0.2,2.7c0,0.5,0.1,0.9,0.1,1.4c0.1,0.5,0.1,0.9,0.2,1.4
		c0.1,0.4,0.2,0.9,0.4,1.3c0.2,0.4,0.3,0.9,0.5,1.3l-2.6-0.5l1.1-0.9l1.1-1l1-1l0.9-1.1l0.9-1.2l0.8-1.2l0.7-1.3l0.7-1.3l0.6-1.4
		l0.5-1.4l0.4-1.5l0.3-1.5l0.2-1.5l0.1-1.5l0-1.5L179.6,55.6z"/>
</g>
<g id="XMLID_25_">
	<path id="XMLID_51_" d="M161.4,32.6c0,0,1-0.7,2.6-1.8c1.7-1.1,4-2.8,6.6-4.9c1.3-1,2.7-2.2,4.1-3.4c0.7-0.6,1.4-1.3,2.1-2
		c0.7-0.7,1.5-1.4,2-2c0.6-0.6,1-1.2,1.1-1.7c0-0.1,0-0.1,0.1-0.2l0,0c0,0-0.1,0.2,0,0.1l0,0l0-0.1c0-0.1,0.1-0.1,0.1-0.2
		c0,0.1,0,0,0-0.1c0-0.2,0-0.3,0-0.4c0-0.1-0.1-0.1,0,0c0,0.1,0.2,0.2,0.1,0.2c0,0-0.2-0.1-0.4-0.1c-0.1,0-0.3,0-0.5,0l-0.1,0l0,0h0
		c0.1,0-0.2,0,0.2,0H179l-0.4,0c-0.3,0-0.6,0-0.8,0c-0.2,0-0.3,0-0.5,0.1l-0.2,0l-0.3,0.1l-0.6,0.1c-0.8,0.2-1.6,0.4-2.4,0.8
		c-1.5,0.7-3,1.7-4.1,2.9c-1.1,1.2-2,2.6-2.6,4c-0.2,0.3-0.3,0.7-0.4,1.1c-0.1,0.2-0.1,0.3-0.2,0.6l-0.1,0.5
		c-0.1,0.7-0.2,1.2-0.1,1.7l0,0.1c0,0-0.1-0.3-0.1-0.1l0,0l0,0l0,0.1l0.1,0.3c0.1,0.3,0.1,0.3,0.1,0.3c0,0.1,0.1,0.2,0.1,0.3
		c0.1,0.1,0.1,0.2,0.2,0.3c0.3,0.4,0.7,0.8,1.2,1.1c1,0.7,2.1,1.1,3,1.4c0.9,0.3,1.7,0.5,2.2,0.7c0.5,0.1,0.8,0.2,0.8,0.2
		s-0.3,0.1-0.8,0.2c-0.5,0.1-1.3,0.3-2.4,0.5c-1.1,0.1-2.4,0.2-4-0.1c-0.8-0.2-1.7-0.5-2.6-1.1c-0.2-0.1-0.4-0.3-0.7-0.5
		c-0.2-0.2-0.4-0.4-0.7-0.6c-0.2-0.3-0.5-0.6-0.6-0.7l-0.2-0.3l0-0.1l0,0l0,0c0.1,0.1-0.1-0.2-0.1-0.2l-0.1-0.2
		c-0.6-1.1-0.8-2.4-0.9-3.6c0-0.3,0-0.6,0-0.9c0-0.2,0-0.6,0-0.8c0-0.6,0.1-1.2,0.2-1.8c0.4-2.4,1.4-4.8,2.9-6.9
		c0.4-0.5,0.8-1,1.2-1.6c0.5-0.5,0.9-1,1.4-1.4c1-0.9,2.1-1.7,3.4-2.4c1.2-0.7,2.6-1.2,4-1.6l1.1-0.2l0.5-0.1l0.6-0.1l1.2-0.1
		c0.4,0,0.6,0,0.9,0l0.4,0l0.2,0l0.3,0l0.1,0l0.1,0c0.4,0,0.8,0.1,1.2,0.1c0.8,0.1,1.8,0.4,2.8,0.9c1,0.5,2,1.4,2.7,2.4
		c0.7,1,1.1,2.1,1.2,3.2c0.2,1,0.1,2-0.1,3c-0.1,0.5-0.2,0.9-0.4,1.5l-0.2,0.5c-0.1,0.2-0.2,0.4-0.3,0.6c-0.8,1.5-1.9,2.6-2.9,3.4
		c-1,0.8-1.9,1.5-2.8,2.1c-0.9,0.6-1.8,1.2-2.7,1.7c-1.8,1-3.6,1.9-5.2,2.6c-3.3,1.4-6.2,2-8.3,2.4c-1,0.2-1.8,0.2-2.4,0.3
		C161.7,32.6,161.4,32.6,161.4,32.6z"/>
</g>
<g id="XMLID_26_">
	<path id="XMLID_49_" d="M151.8,124.9c-0.1-0.2-0.1-0.4-0.1-0.5c0-0.2-0.1-0.4-0.1-0.5c0-0.3-0.1-0.7-0.1-1c0-0.6,0-1.2,0.1-1.7
		c0.1-0.9,1-1.5,1.8-1.4c0.6,0.1,1.1,0.5,1.3,1.1l1,3c0.1,0.3,0.2,0.5,0.2,0.7c0.1,0.2,0.2,0.4,0.2,0.6l0.4,0.8l-2.5-3.4l0.9,0.2
		c0.1,0,0,0-0.3,0.1l0,0.1l0,0.1h0h-0.2h0l0,0l0,0l0.1,0l0,0l0,0l-0.1,0c-0.1,0-0.1,0.1-0.2,0.1c-0.2,0.1-0.2,0.2-0.3,0.3
		c-0.1,0.2-0.2,0.3-0.2,0.6c0,0.2-0.1,0.5,0,0.9c0.1,0.4,0.2,0.8,0.6,1.1l1.9,1.4c-0.1-0.2-0.2-0.4-0.4-0.6
		c-0.1-0.1-0.2-0.2-0.3-0.3l-0.3-0.3c-0.2-0.2-0.5-0.4-0.8-0.7c-0.2-0.1-0.3-0.2-0.5-0.3c-0.2-0.1-0.4-0.2-0.6-0.3
		c0-0.3,0.1-0.5,0.2-0.7c0.1-0.2,0.2-0.4,0.4-0.6c0.3-0.4,0.6-0.7,1-1c0.4-0.3,0.8-0.5,1.2-0.7c0.4-0.2,0.9-0.3,1.4-0.3
		c0.5,0,0.9,0.2,1.2,0.6l0.7,0.9c0.3,0.3,0.5,0.8,0.6,1.2c0.1,0.4,0.2,0.9,0.2,1.3c0,0.9-0.2,1.6-0.5,2.3c-0.3,0.6-0.7,1.2-1.3,1.6
		c-0.3,0.2-0.5,0.4-0.9,0.6l-0.4,0.2l-0.2,0.1l-0.1,0l0,0l-0.1,0l0,0l0,0l-0.3,0.1c-0.6,0.2-1.2,0.3-1.8,0.3c-0.6,0-1-0.1-1.5-0.1
		c-0.9-0.2-1.5-0.5-2-0.7l-0.9-0.5c-1.1-0.6-1.7-1.8-1.7-2.9c0-1,0.3-1.9,0.7-2.8c0.4-0.8,1-1.6,1.7-2.1l4.2,2.8
		c-0.5,0.2-1.1,0.3-1.7,0.4c-0.3,0.1-0.6,0.1-1,0.1c-0.2,0-0.3,0-0.5,0C152.1,124.9,152,124.9,151.8,124.9z"/>
</g>
<g id="XMLID_27_">
	<path id="XMLID_20_" d="M131.3,53.6c-1.1,0.5-2.2,0.9-3.4,1.3c-1.1,0.4-2.2,0.8-3.3,1.1c-1.1,0.4-2.2,0.8-3.2,1.1
		c-1.1,0.4-2.2,0.7-3.2,1c-1.1,0.3-2.2,0.7-3.2,1c-1.1,0.3-2.2,0.7-3.2,0.9c-1.1,0.3-2.2,0.6-3.3,0.9c-1.1,0.3-2.2,0.6-3.3,0.8
		c-1.1,0.3-2.2,0.5-3.3,0.8c-1.1,0.3-2.2,0.5-3.4,0.7c-1.1,0.2-2.3,0.4-3.4,0.6c-1.2,0.1-2.3,0.3-3.5,0.4c-1.2,0.1-2.3,0.2-3.5,0.3
		c-1.2,0.1-2.4,0.1-3.5,0.1c-1.2,0-2.4-0.1-3.6-0.1c-1.2-0.1-2.4-0.3-3.6-0.4L77.1,64c-0.3,0-0.5-0.3-0.4-0.6c0-0.2,0.2-0.4,0.5-0.4
		c0.6,0,1.1-0.1,1.7-0.1c-0.4,0.4-0.8,0.8-1.3,1.1l-0.3-1.1c1.1-0.5,2.2-1,3.2-1.4c1.1-0.5,2.1-0.9,3.2-1.3c1.1-0.4,2.1-0.8,3.2-1.2
		c1.1-0.4,2.1-0.8,3.2-1.1c2.1-0.8,4.3-1.4,6.5-2.1c1.1-0.3,2.2-0.6,3.3-0.9c1.1-0.3,2.2-0.6,3.3-0.8c1.1-0.2,2.3-0.5,3.4-0.7
		c1.1-0.2,2.3-0.4,3.4-0.6c1.2-0.2,2.3-0.3,3.5-0.4c1.2-0.1,2.3-0.2,3.5-0.3c1.2,0,2.4-0.1,3.5,0c1.2,0,2.4,0.1,3.6,0.2
		c1.2,0.1,2.4,0.3,3.6,0.5C128.9,52.9,130.1,53.2,131.3,53.6z"/>
</g>
<g id="XMLID_28_">
	<path id="XMLID_18_" d="M47,58c0.2,0.8,0.4,1.6,0.5,2.4c0.1,0.8,0.1,1.7,0.1,2.5l-0.1,1.3l-0.2,1.3c-0.1,0.8-0.4,1.7-0.6,2.5
		c-0.3,0.8-0.6,1.6-0.9,2.4c-0.4,0.8-0.8,1.6-1.2,2.3c-0.4,0.8-1,1.5-1.5,2.2c-0.3,0.3-0.6,0.7-0.9,1l-0.9,1
		c-1.2,1.3-3.3,1.4-4.6,0.2c-0.3-0.3-0.6-0.7-0.8-1.1l-0.2-0.5c-0.2-0.5-0.4-0.9-0.6-1.4c-0.2-0.5-0.4-1-0.5-1.5c-0.3-1-0.5-2-0.7-3
		c-0.2-1-0.2-2-0.3-3c0-1,0-2,0-2.9c0-1,0.2-1.9,0.3-2.9c0.1-0.9,0.3-1.9,0.5-2.8c0.2-0.9,0.4-1.8,0.7-2.7c0.3-0.9,0.5-1.7,0.8-2.6
		c0.3-0.9,0.6-1.7,0.9-2.5c0.3-0.8,0.6-1.6,0.9-2.4l1.9-4.7c0.3-0.8,0.6-1.6,0.9-2.4c0.3-0.8,0.6-1.6,0.8-2.4
		c0.2-0.8,0.6-1.7,0.7-2.3c0-0.1,0-0.3,0-0.4c0,0,0-0.1,0,0l0-0.1c0-0.1,0,0,0-0.1c0-0.1-0.1-0.1-0.1-0.2c-0.2-0.2-0.6-0.4-1,0
		c0-0.2,0.2-0.5,0.4-0.6c0.2-0.1,0.5-0.2,0.8-0.2c0.1,0,0.3,0.1,0.5,0.1c0.1,0,0.2,0.1,0.2,0.1l0.1,0l0.1,0.1
		c0.2,0.2,0.4,0.5,0.6,0.8c0.3,0.5,0.4,1.1,0.4,1.5c0.1,0.5,0.2,0.9,0.2,1.4c0.1,0.9,0.2,1.8,0.2,2.8c0,0.9,0,1.8,0,2.8
		c-0.1,1.8-0.3,3.6-0.6,5.4c-0.1,0.9-0.3,1.7-0.4,2.6c-0.2,0.8-0.3,1.7-0.5,2.5l-0.5,2.5c-0.2,0.8-0.3,1.6-0.4,2.4
		c-0.1,0.8-0.3,1.6-0.3,2.4l-0.2,2.3c-0.1,0.8-0.1,1.5-0.1,2.3c0,0.7,0,1.5,0,2.2c0.1,0.7,0.1,1.4,0.2,2.1c0.1,0.7,0.3,1.4,0.4,2.1
		l-5.6-1.4c0.5-0.4,1.1-0.8,1.6-1.2l0.8-0.7c0.2-0.2,0.5-0.5,0.7-0.7l0.7-0.7c0.2-0.3,0.5-0.5,0.7-0.8l0.7-0.8
		c0.2-0.3,0.4-0.6,0.7-0.8c0.4-0.6,0.8-1.2,1.3-1.8c0.4-0.6,0.8-1.3,1.2-1.9l0.5-1l0.5-1c0.1-0.4,0.3-0.7,0.5-1.1
		C46.7,58.8,46.8,58.4,47,58z"/>
</g>
<g id="XMLID_29_">
	<path id="XMLID_16_" d="M67.4,26.1c-0.2-0.1-0.4-0.2-0.6-0.4c-0.2-0.1-0.4-0.3-0.5-0.4c-0.3-0.3-0.7-0.5-1-0.8l2.6,0.5
		c0,0.2,0,0.4,0,0.7c0,0.2,0.1,0.4,0.1,0.6c0.1,0.2,0.1,0.4,0.2,0.5l0.2,0.5c0.1,0.1,0.2,0.3,0.2,0.4c0.1,0.1,0.2,0.2,0.2,0.3
		c0.2,0.2,0.3,0.3,0.5,0.4l-2.8-2.1c-0.3-0.1-0.8-0.1-1.1,0c-0.3,0.1-0.5,0.2-0.7,0.3c-0.1,0.1-0.3,0.2-0.3,0.4
		c-0.1,0.1-0.1,0.3-0.1,0.5c0,0.2,0,0.5,0.1,0.8l0,0.1l0.2,0.3l-0.1-0.2c-0.1-0.1,0,0,0.1,0.1c0.1,0.1,0.1,0.2,0.2,0.2
		c0.3,0.2,0.5,0.2,0.5,0.1c0.1-0.1,0-0.2,0-0.3l0-0.1l-0.1,0l-0.1,0v0v0c0,0,0.2-0.1,0.2,0l0,0l-0.1,0c-0.1,0-0.2,0-0.2,0
		c0,0,0,0,0-0.1c0,0,0,0-0.1,0c-0.1,0-0.1,0-0.2,0c-0.3,0-0.7,0.1-1.2,0.2c-0.4,0.2-0.9,0.4-1.5,0.8l-0.9-1.7
		c0.2,0.3,0.5,0.5,0.7,0.8c0.1,0.1,0.2,0.3,0.3,0.4c0.1,0.1,0.2,0.3,0.3,0.5c-0.2,0.1-0.4,0.2-0.5,0.2c-0.2,0.1-0.4,0.2-0.5,0.2
		c-0.3,0.1-0.7,0.2-1,0.3c-0.3,0.1-0.6-0.1-0.7-0.4c0,0,0-0.1,0-0.1l-0.1-1.2c-0.1-0.8,0-1.5,0.2-2.3c0.2-0.8,0.6-1.6,1.3-2.3
		c0.3-0.4,0.6-0.7,1.2-1c0.2-0.1,0.1-0.1,0.2-0.2l0.1-0.1l0,0l0.1-0.1l0,0l0,0l0.1-0.1c0.3-0.1,0.5-0.3,0.8-0.3
		c1.1-0.4,2.3-0.5,3.5-0.2c1.2,0.2,2.4,0.8,3.5,1.9c0.1,0.1,0.3,0.3,0.4,0.5c0.1,0.2,0.3,0.5,0.3,0.5l0.1,0.2l0.1,0.3l0,0.1l0.1,0.2
		l0.1,0.3c0.3,0.8,0.4,1.7,0.3,2.5c-0.1,0.8-0.3,1.5-0.6,2.2c-0.3,0.7-0.7,1.3-1.3,1.8c-0.6,0.5-1.3,1-2.1,1.3
		c-0.9,0.3-1.9,0.4-2.8,0.2l-0.5-0.1c-1.1-0.2-1.9-1-2.2-2c-0.3-0.8-0.4-1.7-0.3-2.5c0-0.4,0.1-0.8,0.1-1.2c0.1-0.4,0.2-0.8,0.3-1.1
		c0.1-0.4,0.3-0.7,0.5-1c0.2-0.3,0.4-0.6,0.7-0.9c0.5-0.6,1.1-1,1.7-1.4l1.2-0.6c0.5-0.3,1.1-0.1,1.3,0.4c0.1,0.2,0.1,0.4,0.1,0.6
		c-0.1,0.4-0.2,0.8-0.3,1.2c-0.1,0.2-0.1,0.4-0.2,0.6C67.6,25.7,67.5,25.9,67.4,26.1z"/>
</g>
<g id="XMLID_44_">
	<path id="XMLID_14_" d="M14.8,27.2c0,0,0-0.2,0.1-0.5c0.1-0.3,0.1-0.8,0.4-1.4c0.5-1.2,1.4-3,3.3-4.8c1.8-1.7,4.5-3.4,7.7-4.7
		c1.6-0.7,3.3-1.3,5.2-1.8c1.8-0.6,3.8-1.1,6.1-1.3c1.1-0.1,2.4-0.2,3.7,0c1.3,0.2,2.7,0.6,4.1,1.4c1.4,0.8,2.5,2.2,3.2,3.7
		c0.8,1.7,0.9,3.4,0.7,5c-0.2,1.6-0.8,3.1-1.7,4.5c-0.4,0.7-0.9,1.3-1.5,2c-0.3,0.3-0.6,0.6-0.9,0.9l-0.1,0.1L45,30.4
		c-0.1,0,0,0-0.1,0.1l-0.2,0.1l-0.4,0.3c-0.8,0.5-1.4,0.9-2.1,1.3c-0.7,0.4-1.4,0.7-2.1,0.9c-1.4,0.5-2.8,0.9-4.2,1.1
		c-2.8,0.5-5.4,0.7-7.7,1.2c-1.2,0.2-2.2,0.5-3.2,0.9c-0.5,0.2-0.9,0.4-1.3,0.6l-0.3,0.2c0,0,0.3-0.2,0.1-0.1l-0.1,0l-0.1,0.1
		l-0.2,0.1l-0.4,0.3l-0.2,0.1l-0.1,0.1c-0.1,0.1-0.3,0.2-0.4,0.4l-0.5,0.5c-0.3,0.4-0.6,0.7-0.9,1.2c-0.6,0.8-1.1,1.8-1.5,2.8
		c-0.9,2.1-1.5,4.4-1.8,6.9c-0.1,0.6-0.2,1.2-0.2,1.9l-0.1,1.9l-0.2,2c-0.1,0.7-0.1,1.4-0.1,2c0,1.3,0,2.5,0,3.8
		c0,1.3,0.1,2.6,0.2,3.8c0,0.6,0.1,1.3,0.1,1.9l0.2,1.9c0.2,1.3,0.2,2.5,0.5,3.8c0.2,1.2,0.4,2.5,0.7,3.7c0.2,1.2,0.6,2.4,0.8,3.6
		c0.1,0.6,0.3,1.2,0.4,1.8c0.2,0.6,0.4,1.2,0.5,1.7c0.4,1.2,0.7,2.3,1,3.4c0.8,2.2,1.6,4.5,2.5,6.5c0.5,1,0.9,2.1,1.3,3.1
		c0.5,1,1,2,1.5,2.9c0.2,0.5,0.5,1,0.7,1.4c0.3,0.5,0.5,0.9,0.8,1.4c0.5,0.9,1,1.8,1.5,2.7c1,1.7,2.2,3.3,3.1,4.8
		c1.1,1.5,2.1,2.9,3.1,4.2c1,1.3,2.1,2.4,2.9,3.5c0.9,1.1,1.9,2,2.6,2.9c1.6,1.8,3,3,3.9,3.9c0.9,0.9,1.4,1.4,1.4,1.4
		s-0.6-0.4-1.7-1c-1.1-0.7-2.8-1.6-4.7-3.1c-1-0.7-2.1-1.5-3.2-2.4c-1.1-0.9-2.3-2-3.6-3.1c-1.2-1.2-2.5-2.5-3.8-3.9
		c-1.2-1.5-2.6-3-3.9-4.6c-0.6-0.9-1.3-1.7-1.9-2.6c-0.3-0.4-0.7-0.9-1-1.3c-0.3-0.5-0.6-0.9-0.9-1.4c-0.6-1-1.2-2-1.9-3
		c-0.6-1-1.2-2.1-1.7-3.2c-1.2-2.1-2.2-4.5-3.3-6.8c-0.5-1.2-0.9-2.4-1.4-3.6c-0.2-0.6-0.5-1.2-0.7-1.9c-0.2-0.6-0.4-1.3-0.6-1.9
		C10.5,76.8,9.5,71.3,9,65.7c-0.1-1.4-0.3-2.8-0.3-4.3c0-1.5,0-2.9,0-4.4c0-0.8,0-1.4,0.1-2.1l0.1-2L9,50.7c0.1-0.7,0.2-1.5,0.3-2.2
		c0.4-2.9,1.2-5.9,2.4-8.9c0.6-1.5,1.5-2.9,2.5-4.3c0.5-0.7,1.1-1.3,1.7-2l0.9-0.9c0.4-0.3,0.8-0.6,1.1-0.9l0.3-0.2l0.2-0.1l0.4-0.3
		l0.6-0.4l0.6-0.3c0.8-0.4,1.6-0.8,2.3-1c1.6-0.6,3.1-0.9,4.5-1.1c2.9-0.4,5.5-0.5,7.8-0.8c1.2-0.1,2.2-0.4,3.2-0.6
		c0.5-0.1,1-0.3,1.4-0.5c0.4-0.2,0.9-0.4,1.1-0.6l0.4-0.3l0.2-0.1c-0.1,0.1,0,0,0,0l0,0l0.1,0c0.2-0.1,0.3-0.2,0.4-0.4
		c0.3-0.3,0.6-0.6,0.8-0.9c0.5-0.6,0.8-1.4,1-2.1c0.2-0.7,0.2-1.4,0-1.8c-0.2-0.6-0.5-1.1-1-1.5c-0.9-0.8-2.7-1.2-4.5-1.2
		c-1.8,0-3.7,0.2-5.5,0.5c-1.8,0.3-3.5,0.6-5.1,1c-3.1,0.8-5.8,1.8-7.7,3c-1.9,1.2-3.2,2.6-3.8,3.7c-0.4,0.5-0.6,1-0.7,1.3
		C14.9,27.1,14.8,27.2,14.8,27.2z"/>
</g>
</svg>
