<?xml version="1.0" encoding="utf-8"?>
<!-- Generator: Adobe Illustrator 19.0.0, SVG Export Plug-In . SVG Version: 6.00 Build 0)  -->
<svg version="1.1" id="Layer_1" xmlns="http://www.w3.org/2000/svg" xmlns:xlink="http://www.w3.org/1999/xlink" x="0px" y="0px"
	 viewBox="0 0 188.5 133" style="enable-background:new 0 0 188.5 133;" xml:space="preserve">
<style type="text/css">
	.st0{fill:#FFFFFF;}
</style>
<g id="XMLID_24_">
	<path id="XMLID_53_" class="st0" d="M179.6,55.6l0.3,1.5l0.2,1.6l0.1,1.6l0,1.6l-0.1,1.6l-0.2,1.6l-0.3,1.6l-0.4,1.5l-0.5,1.5
		L178,71l-0.7,1.4l-0.8,1.4l-0.9,1.3l-1,1.3l-1.1,1.2l-1.2,1.1c-0.4,0.4-1.1,0.4-1.4,0c0,0-0.1-0.1-0.1-0.2l-0.1-0.1
		c-0.3-0.5-0.6-1-0.8-1.5c-0.2-0.5-0.5-1.1-0.7-1.6c-0.2-0.5-0.3-1.1-0.5-1.7c-0.1-0.6-0.2-1.1-0.3-1.7c-0.1-1.2-0.1-2.3,0-3.5
		c0.1-0.6,0.2-1.2,0.3-1.7c0.1-0.6,0.3-1.1,0.5-1.7c0.3-0.8,1.1-1.2,1.9-0.9c0.5,0.2,0.8,0.6,0.9,1l0,0.1c0.3,1.3,0.6,2.7,0.6,4
		c0,0.7,0.1,1.4,0,2l0,1l-0.1,1c-0.1,1.4-0.5,2.7-0.8,4c-0.2,0.6-0.4,1.3-0.7,1.9c-0.3,0.6-0.5,1.3-0.8,1.9
		c-0.6,1.2-1.3,2.4-2.2,3.5c-0.8,1.1-1.7,2.1-2.8,3.1c-0.5,0.5-1.1,0.9-1.6,1.4c-0.6,0.4-1.1,0.8-1.7,1.2c-0.7,0.4-1.3,0.8-2.2,1
		c-0.8,0.3-1.9,0.4-3,0.1c-1.1-0.2-2.1-1-2.7-1.8c-0.6-0.8-1-1.6-1.2-2.3c-0.1-0.2-0.1-0.4-0.2-0.6l0-0.1l-0.1-0.2l0-0.2l-0.2-0.9
		c-0.1-0.3-0.1-0.7-0.2-1.1L152,83c0-1.4,0-2.9,0.3-4.3c0.2-1.4,0.6-2.7,1.1-4c0.2-0.7,0.5-1.3,0.7-1.9c0.3-0.6,0.6-1.2,0.9-1.8
		c0.6-1.2,1.3-2.4,2-3.5c0.7-1.1,1.4-2.2,2.2-3.3c0.7-1.1,1.5-2.1,2.3-3.1l3.3,3.5l-3.6,2.3c-1.2,0.7-2.5,1.4-3.7,2
		c-2.5,1.3-5.1,2.4-7.7,3.4c-1.3,0.5-2.6,0.9-4,1.4c-1.3,0.5-2.7,0.8-4,1.2l-2,0.5l-2,0.4c-1.4,0.3-2.7,0.6-4.1,0.8
		c-2.7,0.5-5.5,0.9-8.2,1.2c-1.4,0.1-2.7,0.3-4.1,0.4l-4.1,0.3c-2.7,0.1-5.5,0.3-8.2,0.3c-2.7,0.1-5.5,0.1-8.2,0.1
		c-2.7,0-5.4-0.1-8.2-0.1l-8.1-0.2c-5.4-0.1-10.9-0.4-16.3-0.6c-5.4-0.2-10.9-0.5-16.3-0.7l-8.1-0.4l-2-0.1c-0.7-0.1-1.4,0-2.1-0.2
		c-0.7-0.2-1.3-0.5-1.9-0.9c-0.3-0.2-0.5-0.5-0.6-0.8c-0.1-0.3,0-0.7,0.2-1c-0.2,0.3-0.2,0.7-0.1,1c0.1,0.3,0.4,0.5,0.6,0.7
		c0.5,0.4,1.2,0.6,1.8,0.7c0.6,0.1,1.3,0,2,0l2-0.1l8.2-0.3c5.4-0.1,10.9-0.3,16.3-0.4c5.4-0.1,10.9-0.2,16.3-0.3l8.2-0.1
		c2.7,0,5.4-0.1,8.1-0.2c2.7-0.1,5.4-0.2,8.1-0.3c2.7-0.1,5.4-0.3,8.1-0.5l4-0.4l4-0.5c2.6-0.3,5.3-0.7,7.9-1.2
		c1.3-0.2,2.6-0.5,3.9-0.8l1.9-0.4l1.9-0.5c1.3-0.3,2.6-0.7,3.8-1.1c1.2-0.4,2.5-0.8,3.7-1.3c2.5-0.9,4.9-2,7.2-3.1
		c1.1-0.6,2.3-1.2,3.5-1.9l3.3-2.1l0.1-0.1c1.1-0.7,2.6-0.4,3.3,0.8c0.5,0.9,0.5,2-0.1,2.8c-0.8,1-1.5,2-2.2,3c-0.7,1-1.4,2-2.1,3
		c-0.7,1-1.2,2.1-1.8,3.1c-0.3,0.5-0.5,1-0.8,1.6c-0.2,0.5-0.5,1.1-0.7,1.6c-0.4,1.1-0.8,2.2-0.9,3.2c-0.2,1.1-0.3,2.2-0.3,3.3
		l0.1,0.7c0,0.3,0,0.5,0.1,0.8l0.2,0.9l0,0.2l0,0.1l0,0c0,0,0,0.1,0-0.1l0,0l0,0.1c0,0.1,0.1,0.2,0.1,0.3c0.1,0.4,0.3,0.8,0.5,1
		c0.2,0.2,0.2,0.3,0.4,0.3c0.2,0.1,1.1-0.1,2-0.6c0.5-0.3,1-0.6,1.4-0.9c0.4-0.4,0.9-0.7,1.3-1c0.9-0.8,1.7-1.6,2.4-2.5
		c0.7-0.9,1.4-1.9,1.9-2.9c0.3-0.5,0.5-1,0.8-1.6c0.2-0.5,0.4-1.1,0.6-1.6c0.4-1.1,0.7-2.2,0.9-3.4l0.1-0.9l0.1-0.9
		c0.1-0.6,0.1-1.2,0.1-1.7c0-1.2-0.1-2.3-0.4-3.5l2.8,0.2c-0.2,0.4-0.3,0.9-0.5,1.3c-0.1,0.5-0.2,0.9-0.3,1.4
		c-0.2,0.9-0.2,1.9-0.2,2.9c0,0.5,0.1,1,0.1,1.4c0.1,0.5,0.2,1,0.3,1.4c0.1,0.5,0.3,0.9,0.5,1.4c0.2,0.5,0.4,0.9,0.6,1.3l-1.6-0.3
		l1.1-0.9l1.1-1l1-1.1l0.9-1.2l0.9-1.2l0.8-1.3l0.7-1.3l0.6-1.4l0.5-1.4l0.4-1.5l0.4-1.5l0.3-1.5l0.2-1.5l0.1-1.5l0-1.5L179.6,55.6z
		"/>
</g>
<g id="XMLID_25_">
	<path id="XMLID_51_" class="st0" d="M161.4,32.6c0,0,1-0.6,2.8-1.5c0.9-0.5,1.9-1.1,3.1-1.8c1.2-0.7,2.5-1.6,3.8-2.6
		c1.4-1,2.8-2.1,4.3-3.3c0.7-0.6,1.5-1.2,2.2-1.9c0.7-0.7,1.5-1.4,2.1-2c0.6-0.7,1.2-1.4,1.4-2c0-0.1,0.1-0.2,0.1-0.2l0,0
		c0,0,0,0.1,0,0.1l0,0l0-0.1l0.1-0.2c0-0.1,0-0.2,0.1-0.4c0-0.3,0-0.6,0-0.9c0-0.3-0.1-0.4-0.2-0.6c-0.1-0.1-0.2-0.2-0.4-0.3
		c-0.4-0.2-1.3-0.4-2.2-0.3c-0.3,0-0.6,0-0.8,0l-0.6,0.1c-0.4,0-0.9,0.2-1.3,0.2c-0.9,0.3-1.8,0.5-2.7,1c-1.7,0.8-3.3,2-4.5,3.4
		c-1.2,1.4-2.1,2.9-2.7,4.5c-0.2,0.4-0.2,0.8-0.3,1.2c-0.1,0.2-0.1,0.4-0.1,0.6l-0.1,0.6c-0.1,0.8-0.1,1.4,0.1,2l0,0.1
		c0,0-0.1-0.2,0-0.1l0,0l0,0l0,0.1l0.1,0.3c0.1,0.2,0.1,0.3,0.2,0.4c0,0.1,0.1,0.2,0.2,0.4c0.1,0.1,0.2,0.2,0.3,0.4
		c0.4,0.5,0.9,0.8,1.5,1.1c1.1,0.6,2.3,0.9,3.2,1.2c1,0.2,1.7,0.4,2.3,0.4c0.5,0.1,0.8,0.1,0.8,0.1s-0.3,0.1-0.8,0.2
		c-0.5,0.1-1.3,0.2-2.4,0.3c-1,0-2.3,0.1-3.8-0.4c-0.7-0.2-1.6-0.5-2.3-1.1c-0.2-0.1-0.4-0.3-0.6-0.5c-0.2-0.2-0.4-0.3-0.6-0.6
		c-0.2-0.2-0.4-0.5-0.5-0.6l-0.2-0.3l0-0.1l0,0l0,0c0,0.1-0.1-0.1-0.1-0.1l-0.1-0.2c-0.5-1-0.7-2.1-0.7-3.2c0-0.3,0-0.5,0-0.8
		c0-0.2,0-0.5,0.1-0.8c0.1-0.5,0.1-1.1,0.2-1.6c0.4-2.2,1.4-4.4,2.9-6.4c1.4-2,3.4-3.7,5.7-4.9c1.1-0.6,2.4-1.1,3.7-1.5
		c0.7-0.1,1.3-0.3,2-0.4l1.1-0.1c0.3,0,0.6,0.2,0.9,0.2l0.4,0.3h0.2l0.4-0.2c0.3,0,0.7-0.1,1.1,0c0.7,0.1,1.5,0.3,2.4,0.7
		c0.8,0.4,1.6,1.1,2.2,1.9c0.5,0.8,0.9,1.7,1,2.5c0.1,0.9,0.1,1.7-0.1,2.5c-0.1,0.4-0.2,0.8-0.3,1.2l-0.2,0.5
		c-0.1,0.2-0.2,0.3-0.3,0.5c-0.7,1.3-1.6,2.3-2.5,3.1c-0.9,0.8-1.8,1.4-2.6,2.1c-0.9,0.6-1.7,1.2-2.6,1.7c-1.7,1.1-3.4,2-5,2.7
		c-3.2,1.5-6,2.3-8,2.8c-1,0.3-1.8,0.4-2.3,0.5C161.6,32.6,161.4,32.6,161.4,32.6z"/>
</g>
<g id="XMLID_26_">
	<path id="XMLID_49_" class="st0" d="M151.8,124.9c0-0.3,0-0.6,0.1-0.9c0-0.3,0.1-0.6,0.1-0.8c0.1-0.5,0.2-1,0.4-1.5
		c0.2-0.7,1-1.1,1.7-0.8c0.6,0.2,0.9,0.7,0.9,1.3l0,1.3c0,1,0.1,1.9,0.3,2.6l-1.6-2.1c0.5,0.1,0.8,0.2,1.1,0.3c0.1,0,0.2,0,0.2,0.1
		c0.1,0,0,0,0,0V124h0.1l0,0c-0.1,0,0.2,0-0.1,0h0l0,0.2l0,0.1l0.1,0c0,0-0.1,0.1-0.1,0.1c-0.1,0,0,0.1,0,0.1c0,0.1,0,0.1,0,0.1
		c0,0.1,0,0.1,0.1,0.3c0,0.1,0.1,0.3,0.3,0.4l1.2,0.9c-0.3-0.3-0.7-0.5-1.2-0.8c-0.3-0.1-0.5-0.2-0.8-0.4c-0.2-0.1-0.3-0.1-0.5-0.2
		l-0.5-0.1c0.3-0.7,0.9-1.2,1.6-1.6c0.7-0.4,1.5-0.6,2.3-0.6c0.4,0,0.7,0.2,0.9,0.4l0.3,0.4c0.2,0.3,0.3,0.6,0.4,0.9
		c0.1,0.3,0.1,0.7,0.1,1c0,0.6-0.2,1.2-0.4,1.7c-0.2,0.5-0.6,0.9-1,1.2c-0.2,0.2-0.4,0.3-0.7,0.5c-0.1,0.1-0.4,0.2-0.5,0.2l-0.1,0
		l0,0l0,0l-0.2,0c-0.9,0.3-1.9,0.2-2.6,0.1c-0.7-0.2-1.3-0.4-1.8-0.6l-0.4-0.2c-0.8-0.4-1.2-1.1-1.2-1.9c0-1.7,0.7-3.3,1.8-4.4
		l2.6,1.7c-0.4,0.3-0.9,0.5-1.4,0.7c-0.2,0.1-0.5,0.2-0.8,0.3C152.3,124.8,152.1,124.8,151.8,124.9z"/>
</g>
<g id="XMLID_27_">
	<path id="XMLID_20_" class="st0" d="M131.3,53.6c-1.1,0.3-2.3,0.6-3.4,0.9c-1.1,0.3-2.2,0.6-3.3,0.8c-1.1,0.3-2.2,0.6-3.3,0.8
		c-1.1,0.3-2.2,0.6-3.3,0.9c-1.1,0.3-2.2,0.6-3.3,0.8c-1.1,0.3-2.2,0.6-3.3,0.8c-2.2,0.6-4.4,1.1-6.6,1.7c-1.1,0.3-2.2,0.5-3.3,0.8
		c-1.1,0.3-2.2,0.5-3.4,0.7l-3.4,0.7c-1.1,0.2-2.3,0.4-3.4,0.6c-1.1,0.2-2.3,0.3-3.4,0.4c-1.2,0.1-2.3,0.2-3.5,0.3
		c-1.2,0.1-2.3,0.1-3.5,0.1c-1.2,0-2.3,0-3.5-0.1l-0.1,0c-0.2,0-0.3-0.2-0.3-0.3c0-0.2,0.1-0.3,0.3-0.3c0.5-0.1,1.1-0.2,1.6-0.3
		c-0.4,0.3-0.9,0.6-1.4,0.9l-0.2-0.7c1.1-0.4,2.2-0.8,3.3-1.1c1.1-0.4,2.2-0.7,3.3-1c1.1-0.4,2.2-0.7,3.3-1c1.1-0.3,2.2-0.7,3.3-1
		c4.4-1.3,8.8-2.5,13.2-3.5c2.2-0.5,4.5-1,6.8-1.4c1.1-0.2,2.3-0.4,3.4-0.5c1.2-0.2,2.3-0.3,3.5-0.4c1.2-0.1,2.3-0.2,3.5-0.2
		c1.2,0,2.3,0,3.5,0c1.2,0.1,2.3,0.1,3.5,0.2C129,53.2,130.1,53.4,131.3,53.6z"/>
</g>
<g id="XMLID_28_">
	<path id="XMLID_18_" class="st0" d="M47,58c0.1,0.8,0.2,1.6,0.2,2.4c0,0.8,0,1.6-0.1,2.4c-0.1,0.8-0.3,1.6-0.4,2.4
		c-0.2,0.8-0.4,1.6-0.7,2.4c-0.3,0.8-0.6,1.5-1,2.3c-0.4,0.7-0.8,1.5-1.3,2.2c-0.5,0.7-1,1.4-1.5,2l-0.8,1L40.4,76
		c-0.8,0.8-2.1,0.8-2.9,0c-0.2-0.2-0.3-0.4-0.4-0.7L37,75.2c-0.4-0.9-0.7-1.8-1-2.7c-0.2-0.9-0.5-1.9-0.6-2.8
		c-0.1-0.9-0.2-1.9-0.2-2.8c0-0.9,0-1.9,0.1-2.8c0.1-0.9,0.2-1.8,0.3-2.7c0.1-0.9,0.3-1.8,0.5-2.7c0.2-0.9,0.4-1.8,0.6-2.6
		c0.2-0.9,0.5-1.7,0.7-2.5c0.3-0.9,0.5-1.7,0.8-2.5l0.8-2.4c0.6-1.6,1.1-3.2,1.6-4.8c0.5-1.6,1-3.2,1.4-4.9c0.1-0.8,0.4-1.7,0.4-2.4
		c0-0.2,0-0.3-0.1-0.5c0,0,0-0.1,0,0l0-0.1l-0.1-0.1c0-0.1-0.1-0.1-0.2-0.2c-0.3-0.2-0.8-0.3-1,0.1c0.1-0.5,0.7-0.7,1.2-0.6
		c0.1,0,0.3,0.1,0.4,0.1c0.1,0,0.2,0.1,0.2,0.1l0.1,0l0.1,0.1c0.2,0.2,0.3,0.4,0.4,0.7c0.2,0.5,0.3,1,0.3,1.4c0,0.4,0.1,0.9,0.1,1.3
		c0.1,1.8,0,3.6-0.2,5.4c-0.4,3.6-1.2,7-1.9,10.3l-0.5,2.5c-0.2,0.8-0.3,1.6-0.5,2.4c-0.1,0.8-0.3,1.6-0.4,2.4
		c-0.1,0.8-0.2,1.6-0.2,2.4c-0.1,0.8-0.1,1.6-0.1,2.4c0,0.8,0,1.6,0.1,2.3c0.1,0.8,0.2,1.5,0.3,2.3c0.1,0.8,0.3,1.5,0.6,2.2
		l-3.5-0.9c0.6-0.4,1.1-0.9,1.6-1.4l0.8-0.7l0.7-0.8l0.7-0.8l0.7-0.9l0.6-0.9l0.6-0.9c0.4-0.6,0.8-1.3,1.1-1.9c0.4-0.7,0.7-1.3,1-2
		c0.1-0.4,0.3-0.7,0.4-1.1l0.4-1.1c0.1-0.4,0.2-0.7,0.4-1.1C46.8,58.8,46.9,58.4,47,58z"/>
</g>
<g id="XMLID_29_">
	<path id="XMLID_16_" class="st0" d="M67.4,26.1c-0.3-0.3-0.6-0.6-0.8-0.9c-0.3-0.3-0.5-0.6-0.7-0.9l1.6,0.3
		c-0.1,0.4-0.2,0.9-0.2,1.3c0,0.2,0,0.4,0,0.6l0.1,0.6c0,0.2,0.1,0.4,0.1,0.5c0,0.2,0.1,0.3,0.2,0.5c0.1,0.2,0.1,0.3,0.2,0.4
		c0.1,0.1,0.2,0.3,0.2,0.4l-1.7-1.3c-0.1-0.1-0.3-0.1-0.4,0c-0.1,0-0.1,0-0.2,0c0,0,0-0.1,0-0.1c0,0,0,0.1,0,0.2l0,0l0,0l0,0l0,0
		l0,0l0,0c-0.1-0.1,0.1,0.2,0.1,0.1l-0.1-0.2c-0.1-0.1,0,0,0,0c0,0,0.1,0.1,0,0.1c0,0-0.1-0.1-0.2-0.3c-0.2-0.1-0.4-0.2-0.7-0.2
		l-0.2,0l0-0.1l0-0.1h0h0c-0.1,0,0.1,0,0.1,0l0,0l-0.1,0c-0.1,0-0.2,0.1-0.2,0c-0.1,0-0.3,0.1-0.5,0.1c-0.7,0.2-1.6,0.9-2.4,1.7
		l-0.5-1.1c0.5,0.4,1,0.8,1.5,1.3c-0.7,0.2-1.3,0.2-1.9,0.3c-0.3,0-0.5-0.2-0.6-0.4c0,0,0-0.1,0-0.1l0-0.5c0-0.7,0.2-1.4,0.5-2
		c0.3-0.7,0.7-1.3,1.2-1.9c0.3-0.3,0.6-0.6,1-0.8l0.2-0.1l0.1-0.1l0.2-0.1c0.2-0.1,0.4-0.2,0.7-0.3c0.9-0.3,1.9-0.3,2.8-0.1
		c1,0.2,1.9,0.7,2.7,1.5c0.1,0.1,0.2,0.2,0.3,0.4c0.1,0.1,0.2,0.3,0.2,0.4l0.1,0.2l0.1,0.2l0,0l0,0.1l0,0.1l0.1,0.2
		c0.2,0.6,0.3,1.3,0.2,1.9c-0.1,1.2-0.6,2.2-1.4,3.1c-0.4,0.4-0.9,0.8-1.6,1c-0.7,0.2-1.4,0.3-2.1,0.1l-0.2,0
		c-0.7-0.1-1.3-0.7-1.5-1.3c-0.2-0.7-0.4-1.4-0.4-2.1c0-0.7,0.1-1.4,0.3-2c0.4-1.3,1.2-2.4,2.2-3.1l0.5-0.3c0.3-0.2,0.8-0.1,1,0.2
		c0.1,0.1,0.1,0.3,0.1,0.4c0,0.4,0,0.8-0.1,1.2C67.5,25.3,67.5,25.7,67.4,26.1z"/>
</g>
<g id="XMLID_44_">
	<path id="XMLID_14_" class="st0" d="M14.8,27.2c0,0,0-0.2,0.1-0.5c0.1-0.3,0.2-0.8,0.5-1.4c0.5-1.2,1.5-2.9,3.4-4.6
		c1.8-1.7,4.5-3.2,7.7-4.4c1.6-0.6,3.3-1.2,5.2-1.7c1.8-0.5,3.8-1,6-1.2c1.1-0.1,2.3-0.1,3.5,0.1c1.2,0.2,2.5,0.6,3.7,1.3
		c1.2,0.8,2.2,1.9,2.8,3.3c0.6,1.4,0.7,3,0.5,4.4c-0.2,1.5-0.8,2.8-1.5,4.1c-0.4,0.6-0.8,1.2-1.4,1.7c-0.3,0.3-0.5,0.5-0.8,0.8
		c-0.1,0.1-0.1,0.1-0.3,0.2l-0.2,0.1l-0.4,0.3c-2.5,1.8-5.2,2.5-7.9,3c-2.7,0.5-5.3,0.7-7.7,1.1c-1.2,0.2-2.4,0.5-3.4,0.9
		c-0.5,0.2-1,0.4-1.5,0.7l-0.4,0.2c0,0,0.2-0.1,0,0l-0.1,0L22.5,36l-0.2,0.1l-0.4,0.3l-0.2,0.1l-0.1,0.1L21,37.1l-0.6,0.6
		c-0.4,0.4-0.8,0.8-1.1,1.3c-0.7,0.9-1.2,2-1.7,3.1c-0.9,2.2-1.5,4.7-1.9,7.3c-0.1,0.6-0.2,1.3-0.3,1.9l-0.1,2l-0.2,2
		c-0.1,0.7-0.1,1.4-0.1,2c0,1.3,0,2.6,0,3.9c0,1.3,0.1,2.6,0.2,3.9c0.4,5.2,1.1,10.3,2.5,15.2c0.2,0.6,0.3,1.2,0.5,1.8
		c0.2,0.6,0.4,1.2,0.6,1.8c0.4,1.2,0.7,2.3,1.1,3.5c0.9,2.2,1.6,4.5,2.6,6.6c0.5,1,0.9,2.1,1.4,3.1c0.5,1,1,2,1.5,2.9
		c0.3,0.5,0.5,1,0.7,1.4c0.3,0.5,0.5,0.9,0.8,1.4c0.5,0.9,1.1,1.8,1.6,2.7c1.1,1.7,2.2,3.3,3.3,4.8c1.1,1.5,2.2,2.8,3.2,4.2
		c1.1,1.2,2.1,2.4,3.1,3.5c0.9,1.1,1.9,2,2.8,2.8c1.7,1.7,3.1,2.9,4.1,3.8c1,0.9,1.5,1.3,1.5,1.3s-0.6-0.4-1.6-1.1
		c-1.1-0.7-2.7-1.7-4.6-3.3c-0.9-0.8-2-1.5-3.1-2.5c-1.1-1-2.2-2.1-3.5-3.2c-1.2-1.2-2.4-2.5-3.7-3.9c-1.2-1.5-2.5-3-3.7-4.7
		c-0.6-0.9-1.2-1.7-1.9-2.6c-0.3-0.4-0.6-0.9-1-1.4c-0.3-0.5-0.6-0.9-0.9-1.4c-0.6-1-1.2-2-1.8-3c-0.6-1-1.1-2.1-1.7-3.1
		c-1.2-2.1-2.1-4.4-3.1-6.7c-0.5-1.2-0.9-2.4-1.3-3.6c-0.2-0.6-0.4-1.2-0.7-1.8c-0.2-0.6-0.4-1.3-0.5-1.9c-1.5-5-2.6-10.4-3.1-16
		c-0.1-1.4-0.2-2.8-0.3-4.2c0-1.4,0-2.9,0-4.3c0-0.7,0-1.4,0.1-2.1l0.1-2l0.1-2.1c0.1-0.7,0.2-1.4,0.3-2.1c0.4-2.9,1.1-5.7,2.3-8.5
		c0.6-1.4,1.4-2.7,2.3-4c0.4-0.6,1-1.2,1.5-1.8l0.9-0.8c0.3-0.3,0.7-0.5,1-0.8l0.3-0.2l0.2-0.1l0.4-0.3l0.5-0.3l0.5-0.3
		c0.7-0.4,1.4-0.7,2.1-0.9c1.4-0.5,2.9-0.8,4.3-1c2.8-0.4,5.4-0.5,7.8-0.9c1.2-0.2,2.3-0.4,3.4-0.7c0.5-0.2,1-0.4,1.5-0.6
		c0.5-0.2,1-0.5,1.3-0.7l0.4-0.3l0.2-0.1c0,0,0.1-0.1,0.1-0.1c0.2-0.1,0.4-0.3,0.5-0.5c0.3-0.3,0.7-0.7,0.9-1.1
		c0.5-0.8,1-1.7,1.1-2.5c0.2-0.9,0.1-1.8-0.1-2.4c-0.3-0.8-0.8-1.4-1.4-1.9c-1.3-1-3.3-1.3-5.1-1.3c-1.9,0-3.8,0.3-5.6,0.7
		c-1.8,0.3-3.5,0.7-5.1,1.1c-3.1,0.9-5.8,2-7.7,3.3c-1.9,1.3-3.1,2.8-3.7,3.9c-0.4,0.5-0.5,1-0.7,1.3C14.8,27.1,14.8,27.2,14.8,27.2
		z"/>
</g>
</svg>
