<svg xmlns="http://www.w3.org/2000/svg" viewBox="0 0 419.52 295.41"><defs><style>.cls-1{fill:#fff;}.cls-2{fill:#ccc;}</style></defs><title>Asset 2ab</title><g id="Layer_2" data-name="Layer 2"><g id="Capa_1" data-name="Capa 1"><path d="M195,134a67,67,0,1,1,66.87-67A67,67,0,0,1,195,134Z"/><path class="cls-1" d="M195,125a58,58,0,1,0-58-58A58,58,0,0,0,195,125Z"/><path d="M153.78,144.89H261.16c19.2,0,34.92,17.6,34.92,39.19V291.94c0,1.19-.6,2.24-.67,3.47H119.59a34.26,34.26,0,0,1-.62-3.47V184.08C118.9,162.49,134.63,144.89,153.78,144.89Z"/><path d="M287.08,286.41V184.09c0-16.65-11.63-30.2-25.92-30.2H153.78A23.79,23.79,0,0,0,137,161.2a32.29,32.29,0,0,0-9,22.86V286.41Z"/><path d="M65.08,176.83a49.17,49.17,0,1,1,49.07-49.15A49.08,49.08,0,0,1,65.08,176.83Z"/><path class="cls-1" d="M65.08,168.59a40.93,40.93,0,0,0,0-81.86,40.93,40.93,0,1,0,0,81.86Z"/><path d="M25.58,184.86h78.81c14.15,0,25.71,12.92,25.71,28.82v79.14c0,.85-.42,1.66-.48,2.59H.45c-.06-.93-.45-1.74-.45-2.59V213.68C-.06,197.78,11.48,184.86,25.58,184.86Z"/><path class="cls-1" d="M121.85,287.17V213.68c0-11.35-7.83-20.58-17.46-20.58H25.58A15.9,15.9,0,0,0,14.38,198a22.14,22.14,0,0,0-6.14,15.66v73.52Z"/><path d="M341,152.19a59.4,59.4,0,1,1,59.3-59.37A59.31,59.31,0,0,1,341,152.19Z"/><path class="cls-1" d="M341,142.23a49.44,49.44,0,1,0-49.49-49.41A49.43,49.43,0,0,0,341,142.23Z"/><path d="M293.29,161.88h95.29c17,0,30.94,15.6,30.94,34.81v95.6c0,1-.5,2-.59,3.12h-156c-.08-1.12-.53-2.1-.53-3.12v-95.6C262.34,177.48,276.28,161.88,293.29,161.88Z"/><path class="cls-2" d="M409.57,285.46V196.69c0-13.7-9.42-24.86-21-24.86H293.29a19.15,19.15,0,0,0-13.5,5.9,26.76,26.76,0,0,0-7.44,18.94v88.79Z"/></g></g></svg>