<svg xmlns="http://www.w3.org/2000/svg" viewBox="0 0 17.33 16.98"><defs><style>.cls-1{fill:none;stroke:#414141;stroke-linejoin:round;stroke-width:1.8px;}.cls-2{fill:#414141;}</style></defs><title>Asset 1</title><g id="Layer_2" data-name="Layer 2"><g id="Layer_1-2" data-name="Layer 1"><path class="cls-1" d="M.9,7.8c0-3.25,0-4.88,1-5.89S4.55.9,7.8.9H10c2.84,0,4.26,0,5.21.78a3.63,3.63,0,0,1,.48.48c.78,1,.78,2.38.78,5.21h0c0,2.84,0,4.26-.78,5.21a2.73,2.73,0,0,1-.48.48c-.95.79-2.37.79-5.21.79H6.34a7.38,7.38,0,0,0-1.08,0,3.5,3.5,0,0,0-1.52.62,7.29,7.29,0,0,0-.79.74H3c-.48.48-.72.72-.91.78a.87.87,0,0,1-1-.43A3.47,3.47,0,0,1,.9,14.4Z"/><circle class="cls-2" cx="8.67" cy="11.26" r="0.86"/><path class="cls-2" d="M8.67,2.63h0a.86.86,0,0,1,.86.86V7.8a.87.87,0,0,1-.86.87h0A.87.87,0,0,1,7.8,7.8V3.49A.86.86,0,0,1,8.67,2.63Z"/></g></g></svg>