<?xml version="1.0"?>
<svg xmlns="http://www.w3.org/2000/svg" viewBox="0 0 64 64" width="512" height="512"><g id="find-files-paper-document"><path d="M59,8H57V6a1,1,0,0,0-1-1H47.41l-2.7-2.71A1.033,1.033,0,0,0,44,2H11a1,1,0,0,0-1,1v8.62a11.988,11.988,0,0,0,0,20.77V55a1,1,0,0,0,1,1h2v2a1,1,0,0,0,1,1h2v2a1,1,0,0,0,1,1H59a1,1,0,0,0,1-1V9A1,1,0,0,0,59,8ZM45,5.41,50.59,11H45ZM6.34,24.59a10,10,0,0,1,7.07-12.25A10.111,10.111,0,0,1,16.02,12,10,10,0,1,1,6.34,24.59ZM18.66,35.78l-.54-1.99c.33-.06.66-.11.99-.2s.64-.19.95-.31l.53,1.98Zm3.41,1.16,2.59,9.66L20.8,47.63l-2.59-9.66ZM12,54V33.29a11.767,11.767,0,0,0,3.98.72c.04,0,.09-.01.13-.01l.62,2.3a1,1,0,0,0-.61.47.982.982,0,0,0-.1.75l3.1,11.6a1.014,1.014,0,0,0,.97.74.783.783,0,0,0,.26-.04l5.79-1.55a1,1,0,0,0,.71-1.23l-3.1-11.59a1,1,0,0,0-1.23-.7l-.62-2.31a12,12,0,0,0-9.01-22.03,9.242,9.242,0,0,0-.89.29V4H43v8a1,1,0,0,0,1,1h8V54Zm3,3V56H53a1,1,0,0,0,1-1V12a1.033,1.033,0,0,0-.29-.71L49.41,7H55V57Zm43,3H18V59H56a1,1,0,0,0,1-1V10h1Z"/><path d="M16,15V13a9.011,9.011,0,0,0-9,9H9A7.008,7.008,0,0,1,16,15Z"/></g></svg>
