<svg xmlns="http://www.w3.org/2000/svg" viewBox="0 0 393.33 500"><defs><style>.cls-1{fill:#dedede;}.cls-2{fill:#fff;}</style></defs><title>Asset 1112</title><g id="Layer_2" data-name="Layer 2"><g id="Capa_1" data-name="Capa 1"><path class="cls-1" d="M388.67,90h-64a21.41,21.41,0,0,1-21.34-21.33v-64Z"/><path class="cls-2" d="M388.67,90V474a21.4,21.4,0,0,1-21.34,21.33H26A21.38,21.38,0,0,1,4.67,474V26A21.38,21.38,0,0,1,26,4.67H303.33v64A21.41,21.41,0,0,0,324.67,90Z"/><path class="cls-1" d="M79.33,164.67H314a10.67,10.67,0,0,1,10.67,10.66v128A10.67,10.67,0,0,1,314,314H79.33a10.67,10.67,0,0,1-10.66-10.67v-128A10.66,10.66,0,0,1,79.33,164.67Z"/><rect x="64" y="64" width="94.67" height="9.33"/><path d="M58,100.67H79.33V122H58Z"/><rect x="64" y="106.67" width="9.33" height="9.33"/><path d="M100.67,100.67H122V122H100.67Z"/><rect x="106.67" y="106.67" width="9.33" height="9.33"/><path d="M26,500A26,26,0,0,1,0,474V26A26,26,0,0,1,26,0H303.33a4.64,4.64,0,0,1,3.3,1.37L392,86.7a4.63,4.63,0,0,1,1.36,3.3V474a26,26,0,0,1-26,26ZM26,9.33A16.69,16.69,0,0,0,9.33,26V474A16.69,16.69,0,0,0,26,490.67H367.33A16.69,16.69,0,0,0,384,474V91.93l-76-76V68.67a16.68,16.68,0,0,0,16.67,16.66H340v9.34H324.67a26,26,0,0,1-26-26V9.33Z"/><path d="M314,356.67h21.33V378H314Z"/><rect x="320" y="362.67" width="9.33" height="9.33"/><path d="M271.33,356.67h21.34V378H271.33Z"/><rect x="277.33" y="362.67" width="9.33" height="9.33"/><rect x="64" y="362.67" width="158.67" height="9.33"/><rect x="64" y="416" width="265.33" height="9.33"/><path d="M79.33,318.67A15.35,15.35,0,0,1,64,303.33v-128A15.35,15.35,0,0,1,79.33,160H314a15.34,15.34,0,0,1,15.33,15.33v128A15.35,15.35,0,0,1,314,318.67Zm-6-9.34H320v-140H73.33Z"/></g></g></svg>