<svg xmlns="http://www.w3.org/2000/svg" viewBox="0 0 85.34 85.34"><defs><style>.cls-1{fill:#dedede;}</style></defs><title>Asset 111</title><g id="Layer_2" data-name="Layer 2"><g id="Layer_1-2" data-name="Layer 1"><g id="Layer_1-2-2" data-name="Layer 1-2"><g id="Layer_1-2-2-2" data-name="Layer 1-2-2"><path class="cls-1" d="M85.11,25.08a31,31,0,0,0-2-10.35A21.83,21.83,0,0,0,70.64,2.25a31.29,31.29,0,0,0-10.35-2c-4.57-.2-6-.25-17.6-.25S29.69.05,25.1.25a31,31,0,0,0-10.35,2A20.88,20.88,0,0,0,7.19,7.17a20.92,20.92,0,0,0-4.92,7.55,31,31,0,0,0-2,10.35c-.22,4.56-.27,6-.27,17.6s.05,13,.25,17.58a31,31,0,0,0,2,10.35A21.94,21.94,0,0,0,14.74,83.09a31,31,0,0,0,10.35,2c4.55.2,6,.25,17.58.25s13,0,17.59-.25a31,31,0,0,0,10.35-2A21.87,21.87,0,0,0,83.09,70.6a31,31,0,0,0,2-10.35c.2-4.55.25-6,.25-17.58S85.31,29.63,85.11,25.08ZM77.42,59.92A23.78,23.78,0,0,1,76,67.84a14.23,14.23,0,0,1-8.1,8.1A23.57,23.57,0,0,1,60,77.4c-4.5.2-5.85.25-17.23.25S30,77.6,25.47,77.4a23.57,23.57,0,0,1-7.92-1.46,14.06,14.06,0,0,1-8.08-8.09A23.73,23.73,0,0,1,8,59.94c-.2-4.5-.25-5.85-.25-17.24S7.8,30,8,25.47a23.58,23.58,0,0,1,1.47-7.92,12.91,12.91,0,0,1,3.2-4.9,13.18,13.18,0,0,1,4.9-3.18A23,23,0,0,1,25.49,8c4.5-.2,5.85-.25,17.23-.25S55.47,7.75,60,8a23,23,0,0,1,7.91,1.47,12.94,12.94,0,0,1,4.9,3.18A13.41,13.41,0,0,1,76,17.55a23.57,23.57,0,0,1,1.46,7.92c.2,4.5.25,5.85.25,17.23S77.62,55.42,77.42,59.92Z"/><path class="cls-1" d="M42.69,20.75A21.92,21.92,0,1,0,64.61,42.67h0A21.94,21.94,0,0,0,42.69,20.75Zm0,36.14A14.22,14.22,0,1,1,56.91,42.67,14.22,14.22,0,0,1,42.69,56.89Z"/><path class="cls-1" d="M70.59,19.88a5.12,5.12,0,1,1-5.13-5.11h0A5.12,5.12,0,0,1,70.59,19.88Z"/></g></g></g></g></svg>