<?xml version="1.0" encoding="utf-8"?>
<!-- Generator: Adobe Illustrator 23.1.0, SVG Export Plug-In . SVG Version: 6.00 Build 0)  -->
<svg version="1.1" id="Layer_1" xmlns="http://www.w3.org/2000/svg" xmlns:xlink="http://www.w3.org/1999/xlink" x="0px" y="0px"
	 viewBox="0 0 17.8 21.4" style="enable-background:new 0 0 17.8 21.4;" xml:space="preserve">
<style type="text/css">
	.st0{fill:#1E1E1C;}
	.st1{fill:#FDFDFD;}
	.st2{fill-rule:evenodd;clip-rule:evenodd;fill:#414141;}
</style>
<g>
	<path class="st2" d="M0.5,7.9C0.5,7.4,0.9,7,1.4,7h14.9c0.5,0,0.9,0.4,0.9,0.9c0,0.5-0.4,0.9-0.9,0.9H1.4C0.9,8.9,0.5,8.4,0.5,7.9z
		"/>
	<path class="st2" d="M0.5,13.5c0-0.5,0.4-0.9,0.9-0.9h14.9c0.5,0,0.9,0.4,0.9,0.9s-0.4,0.9-0.9,0.9H1.4C0.9,14.4,0.5,14,0.5,13.5z"
		/>
	<path class="st2" d="M7.1,1.4C7.7,1.5,8,1.9,8,2.4L6.1,19.2c-0.1,0.5-0.5,0.9-1,0.8c-0.5-0.1-0.9-0.5-0.8-1L6.1,2.2
		C6.2,1.7,6.6,1.3,7.1,1.4z"/>
	<path class="st2" d="M12.7,1.4c0.5,0.1,0.9,0.5,0.8,1l-1.9,16.8c-0.1,0.5-0.5,0.9-1,0.8c-0.5-0.1-0.9-0.5-0.8-1l1.9-16.8
		C11.8,1.7,12.2,1.3,12.7,1.4z"/>
</g>
</svg>
