<svg id="Layer_1" data-name="Layer 1" xmlns="http://www.w3.org/2000/svg" viewBox="0 0 17.8 21.43"><defs><style>.cls-1{fill:#414141;}.cls-1,.cls-2{fill-rule:evenodd;}.cls-2{fill:#fff;}</style></defs><title>Artboard 4</title><path class="cls-1" d="M8.9,17.72a7,7,0,1,0-7-7A7,7,0,0,0,8.9,17.72Z"/><path class="cls-2" d="M11.71,9.55,9.3,7.13A.54.54,0,0,0,8.9,7a.5.5,0,0,0-.41.2l-2.4,2.4a.54.54,0,0,0,0,.75.54.54,0,0,0,.76,0L8.37,8.77V14a.53.53,0,1,0,1.06,0V8.77L11,10.3a.54.54,0,0,0,.76,0A.54.54,0,0,0,11.71,9.55Z"/></svg>