<?xml version="1.0" encoding="utf-8"?>
<!-- Generator: Adobe Illustrator 23.1.0, SVG Export Plug-In . SVG Version: 6.00 Build 0)  -->
<svg version="1.1" id="Layer_1" xmlns="http://www.w3.org/2000/svg" xmlns:xlink="http://www.w3.org/1999/xlink" x="0px" y="0px"
	 viewBox="0 0 17.8 21.4" style="enable-background:new 0 0 17.8 21.4;" xml:space="preserve">
<style type="text/css">
	.st0{fill:#1E1E1C;}
	.st1{fill:#FDFDFD;}
	.st2{fill:#414141;}
</style>
<g>
	<path class="st2" d="M16.2,10.7c0-2-0.9-3.8-2.2-5.1l-0.3-3.1c-0.2-1.3-1.2-2.4-2.6-2.4H7.2c-1.3,0-2.5,1.1-2.6,2.4L4.3,5.6
		C3,6.9,2.1,8.7,2.1,10.7s0.9,3.9,2.2,5.1l0.3,3.1c0.2,1.3,1.3,2.4,2.6,2.4H11c1.4,0,2.5-1.1,2.6-2.4l0.3-3
		C15.3,14.6,16.2,12.8,16.2,10.7z M6.3,2.7c0-0.4,0.4-0.8,0.9-0.8h3.9c0.4,0,0.8,0.4,0.9,0.8l0.2,1.6c-1-0.4-1.9-0.6-3-0.6
		S7.1,4,6.3,4.3L6.3,2.7z M3.9,10.7c0-2.9,2.4-5.3,5.3-5.3s5.3,2.4,5.3,5.3c0,1.6-0.7,3.1-1.8,4c-0.9,0.8-2.1,1.2-3.4,1.2
		C6.3,16,3.9,13.6,3.9,10.7z M12,18.7c0,0.4-0.4,0.8-0.9,0.8H7.2c-0.4,0-0.8-0.4-0.9-0.8l-0.2-1.6C7,17.6,8,17.8,9.1,17.8
		s2-0.3,2.9-0.6V18.7z"/>
	<path class="st2" d="M9.9,12.7c0.2,0.2,0.4,0.3,0.6,0.3s0.4-0.1,0.6-0.3c0.4-0.4,0.4-0.9,0-1.2L10,10.4V8.1c0-0.5-0.4-0.9-0.9-0.9
		c-0.5,0-0.9,0.4-0.9,0.9v2.6c0,0.3,0.1,0.4,0.3,0.6L9.9,12.7z"/>
</g>
</svg>
